<mxfile host="app.diagrams.net" modified="2022-03-17T10:59:42.032Z" agent="5.0 (X11)" etag="hNBgZTthap0354ycLBnK" version="17.1.3" type="github">
  <diagram name="Page-1" id="9f46799a-70d6-7492-0946-bef42562c5a5">
    <mxGraphModel dx="2773" dy="932" grid="1" gridSize="10" guides="1" tooltips="1" connect="1" arrows="1" fold="1" page="1" pageScale="1" pageWidth="1100" pageHeight="850" background="none" math="0" shadow="0">
      <root>
        <mxCell id="0" />
        <mxCell id="1" parent="0" />
        <mxCell id="zPEH12RnPpSnZzIr6eW2-100" value="&lt;div style=&quot;color: rgb(212 , 212 , 212) ; background-color: rgb(30 , 30 , 30) ; font-family: &amp;#34;droid sans mono&amp;#34; , &amp;#34;monospace&amp;#34; , monospace , &amp;#34;droid sans fallback&amp;#34; ; font-weight: normal ; font-size: 14px ; line-height: 19px&quot;&gt;&lt;div&gt;&lt;span style=&quot;color: #4ec9b0&quot;&gt;AHSParkingInScenario&lt;/span&gt;&lt;/div&gt;&lt;/div&gt;" style="rounded=0;whiteSpace=wrap;html=1;shadow=0;glass=0;labelBackgroundColor=none;sketch=0;fontSize=15;fontColor=default;fillColor=none;align=left;verticalAlign=top;dashed=1;container=0;" vertex="1" parent="1">
          <mxGeometry x="-1090" y="2340" width="1070" height="1160" as="geometry" />
        </mxCell>
        <mxCell id="zPEH12RnPpSnZzIr6eW2-78" value="&lt;div style=&quot;color: rgb(212 , 212 , 212) ; background-color: rgb(30 , 30 , 30) ; font-family: &amp;#34;droid sans mono&amp;#34; , &amp;#34;monospace&amp;#34; , monospace , &amp;#34;droid sans fallback&amp;#34; ; font-weight: normal ; font-size: 14px ; line-height: 19px&quot;&gt;&lt;div&gt;&lt;span style=&quot;color: #4ec9b0&quot;&gt;AHSDumpingScenario&lt;/span&gt;&lt;/div&gt;&lt;/div&gt;" style="rounded=0;whiteSpace=wrap;html=1;shadow=0;glass=0;labelBackgroundColor=none;sketch=0;fontSize=15;fontColor=default;fillColor=none;align=left;verticalAlign=top;dashed=1;container=0;" vertex="1" parent="1">
          <mxGeometry x="-600" y="1345" width="1070" height="795" as="geometry" />
        </mxCell>
        <mxCell id="zPEH12RnPpSnZzIr6eW2-33" value="TaskManager" style="rounded=0;whiteSpace=wrap;html=1;shadow=0;glass=0;labelBackgroundColor=none;sketch=0;fontSize=15;fontColor=default;fillColor=none;align=left;verticalAlign=top;dashed=1;container=0;" vertex="1" parent="1">
          <mxGeometry x="720" y="785" width="580" height="945" as="geometry" />
        </mxCell>
        <mxCell id="zPEH12RnPpSnZzIr6eW2-32" value="&lt;div style=&quot;color: rgb(212, 212, 212); background-color: rgb(30, 30, 30); font-family: &amp;quot;droid sans mono&amp;quot;, &amp;quot;monospace&amp;quot;, monospace, &amp;quot;droid sans fallback&amp;quot;; font-weight: normal; font-size: 14px; line-height: 19px;&quot;&gt;&lt;div&gt;&lt;span style=&quot;color: #4ec9b0&quot;&gt;DefaultTask&lt;/span&gt;&lt;span style=&quot;color: #d4d4d4&quot;&gt;::&lt;/span&gt;&lt;span style=&quot;color: #dcdcaa&quot;&gt;execute&lt;/span&gt;&lt;/div&gt;&lt;/div&gt;" style="rounded=0;whiteSpace=wrap;html=1;shadow=0;glass=0;labelBackgroundColor=none;sketch=0;fontSize=15;fontColor=default;fillColor=none;align=left;verticalAlign=top;dashed=1;container=0;" vertex="1" parent="1">
          <mxGeometry x="-710" y="780" width="970" height="505" as="geometry" />
        </mxCell>
        <mxCell id="zPEH12RnPpSnZzIr6eW2-30" value="City Road Scenario" style="rounded=0;whiteSpace=wrap;html=1;shadow=0;glass=0;labelBackgroundColor=none;sketch=0;fontSize=15;fontColor=default;fillColor=none;align=left;verticalAlign=top;dashed=1;container=0;" vertex="1" parent="1">
          <mxGeometry x="300" y="786" width="400" height="490" as="geometry" />
        </mxCell>
        <mxCell id="pJc1efH-xtK0zPpBtBS--82" value="Regulator" style="rounded=0;whiteSpace=wrap;html=1;shadow=0;glass=0;labelBackgroundColor=none;sketch=0;fontSize=15;fontColor=default;fillColor=none;align=left;verticalAlign=top;dashed=1;container=0;" parent="1" vertex="1">
          <mxGeometry x="110" y="75" width="1140" height="700" as="geometry" />
        </mxCell>
        <mxCell id="pJc1efH-xtK0zPpBtBS--80" value="ScenarioManager" style="rounded=0;whiteSpace=wrap;html=1;shadow=0;glass=0;labelBackgroundColor=none;sketch=0;fontSize=15;fontColor=default;fillColor=none;align=left;verticalAlign=top;dashed=1;container=0;" parent="1" vertex="1">
          <mxGeometry x="1460" y="75" width="1140" height="700" as="geometry" />
        </mxCell>
        <mxCell id="zPEH12RnPpSnZzIr6eW2-76" style="edgeStyle=orthogonalEdgeStyle;shape=connector;curved=1;rounded=0;orthogonalLoop=1;jettySize=auto;html=1;entryX=0;entryY=0.5;entryDx=0;entryDy=0;labelBackgroundColor=none;fontFamily=Helvetica;fontSize=11;fontColor=default;startArrow=none;startFill=0;endArrow=classic;endFill=1;strokeColor=default;" edge="1" parent="1" source="pJc1efH-xtK0zPpBtBS--23" target="pJc1efH-xtK0zPpBtBS--24">
          <mxGeometry relative="1" as="geometry" />
        </mxCell>
        <mxCell id="zPEH12RnPpSnZzIr6eW2-77" style="edgeStyle=orthogonalEdgeStyle;shape=connector;curved=1;rounded=0;orthogonalLoop=1;jettySize=auto;html=1;entryX=0;entryY=0.5;entryDx=0;entryDy=0;labelBackgroundColor=none;fontFamily=Helvetica;fontSize=11;fontColor=default;startArrow=none;startFill=0;endArrow=classic;endFill=1;strokeColor=default;" edge="1" parent="1" source="pJc1efH-xtK0zPpBtBS--23" target="pJc1efH-xtK0zPpBtBS--25">
          <mxGeometry relative="1" as="geometry" />
        </mxCell>
        <mxCell id="pJc1efH-xtK0zPpBtBS--23" value="Regulator::&lt;span style=&quot;&quot;&gt;reset&lt;/span&gt;&lt;span style=&quot;&quot;&gt;()&lt;/span&gt;" style="rounded=1;whiteSpace=wrap;html=1;shadow=0;glass=0;sketch=0;fontSize=15;fillColor=none;fontColor=default;labelBackgroundColor=none;" parent="1" vertex="1">
          <mxGeometry x="120" y="140" width="260" height="40" as="geometry" />
        </mxCell>
        <mxCell id="pJc1efH-xtK0zPpBtBS--24" value="&lt;div style=&quot;font-family: &amp;quot;droid sans mono&amp;quot;, &amp;quot;monospace&amp;quot;, monospace, &amp;quot;droid sans fallback&amp;quot;; font-weight: normal; font-size: 14px; line-height: 19px;&quot;&gt;&lt;div&gt;&lt;span style=&quot;&quot;&gt;Regulator::on_predict&lt;/span&gt;&lt;span style=&quot;&quot;&gt;()&lt;/span&gt;&lt;/div&gt;&lt;/div&gt;" style="rounded=1;whiteSpace=wrap;html=1;shadow=0;glass=0;sketch=0;fontSize=15;fillColor=none;fontColor=default;labelBackgroundColor=none;" parent="1" vertex="1">
          <mxGeometry x="510" y="90" width="260" height="40" as="geometry" />
        </mxCell>
        <mxCell id="pJc1efH-xtK0zPpBtBS--27" style="edgeStyle=orthogonalEdgeStyle;rounded=0;orthogonalLoop=1;jettySize=auto;html=0;entryX=0;entryY=0.5;entryDx=0;entryDy=0;fontSize=15;fontColor=default;labelBackgroundColor=none;" parent="1" source="pJc1efH-xtK0zPpBtBS--25" target="pJc1efH-xtK0zPpBtBS--26" edge="1">
          <mxGeometry relative="1" as="geometry" />
        </mxCell>
        <mxCell id="pJc1efH-xtK0zPpBtBS--25" value="Regulator::&lt;span style=&quot;&quot;&gt;on_planning&lt;/span&gt;&lt;span style=&quot;&quot;&gt;()&lt;/span&gt;" style="rounded=1;whiteSpace=wrap;html=1;shadow=0;glass=0;sketch=0;fontSize=15;fillColor=none;fontColor=default;labelBackgroundColor=none;" parent="1" vertex="1">
          <mxGeometry x="510" y="210" width="260" height="40" as="geometry" />
        </mxCell>
        <mxCell id="pJc1efH-xtK0zPpBtBS--26" value="Regulator::&lt;span&gt;&lt;/span&gt;&lt;span style=&quot;&quot;&gt;process_frame&lt;/span&gt;&lt;span style=&quot;&quot;&gt;()&lt;/span&gt;" style="rounded=1;whiteSpace=wrap;html=1;shadow=0;glass=0;sketch=0;fontSize=15;fillColor=none;fontColor=default;labelBackgroundColor=none;" parent="1" vertex="1">
          <mxGeometry x="870" y="210" width="260" height="40" as="geometry" />
        </mxCell>
        <mxCell id="pJc1efH-xtK0zPpBtBS--32" value="" style="edgeStyle=orthogonalEdgeStyle;rounded=0;orthogonalLoop=1;jettySize=auto;html=0;fontSize=15;fontColor=default;labelBackgroundColor=none;entryX=0.5;entryY=0;entryDx=0;entryDy=0;" parent="1" source="pJc1efH-xtK0zPpBtBS--28" target="pJc1efH-xtK0zPpBtBS--41" edge="1">
          <mxGeometry relative="1" as="geometry" />
        </mxCell>
        <mxCell id="pJc1efH-xtK0zPpBtBS--28" value="&lt;div style=&quot;font-family: &amp;quot;droid sans mono&amp;quot;, &amp;quot;monospace&amp;quot;, monospace, &amp;quot;droid sans fallback&amp;quot;; font-weight: normal; font-size: 14px; line-height: 19px;&quot;&gt;&lt;div&gt;&lt;span style=&quot;&quot;&gt; &lt;/span&gt;&lt;span style=&quot;&quot;&gt;DataCenter&lt;/span&gt;&lt;span style=&quot;&quot;&gt;::&lt;/span&gt;&lt;span style=&quot;&quot;&gt;init_frame()&lt;/span&gt;&lt;/div&gt;&lt;/div&gt;" style="rounded=1;whiteSpace=wrap;html=1;shadow=0;glass=0;sketch=0;fontSize=15;fillColor=none;fontColor=default;labelBackgroundColor=none;" parent="1" vertex="1">
          <mxGeometry x="870" y="290" width="260" height="40" as="geometry" />
        </mxCell>
        <mxCell id="pJc1efH-xtK0zPpBtBS--29" value="产生预测线程" style="text;html=1;align=center;verticalAlign=middle;resizable=0;points=[];autosize=1;strokeColor=none;fillColor=none;fontSize=15;fontColor=default;labelBackgroundColor=none;" parent="1" vertex="1">
          <mxGeometry x="585" y="150" width="110" height="20" as="geometry" />
        </mxCell>
        <mxCell id="pJc1efH-xtK0zPpBtBS--30" value="产生规划线程" style="text;html=1;align=center;verticalAlign=middle;resizable=0;points=[];autosize=1;strokeColor=none;fillColor=none;fontSize=15;fontColor=default;labelBackgroundColor=none;" parent="1" vertex="1">
          <mxGeometry x="585" y="270" width="110" height="20" as="geometry" />
        </mxCell>
        <mxCell id="pJc1efH-xtK0zPpBtBS--35" style="edgeStyle=orthogonalEdgeStyle;rounded=0;orthogonalLoop=1;jettySize=auto;html=0;entryX=0.5;entryY=0;entryDx=0;entryDy=0;labelBackgroundColor=none;fontSize=15;fontColor=default;" parent="1" source="pJc1efH-xtK0zPpBtBS--31" target="pJc1efH-xtK0zPpBtBS--34" edge="1">
          <mxGeometry relative="1" as="geometry" />
        </mxCell>
        <mxCell id="pJc1efH-xtK0zPpBtBS--31" value="&lt;div style=&quot;font-family: &amp;quot;droid sans mono&amp;quot; , &amp;quot;monospace&amp;quot; , monospace , &amp;quot;droid sans fallback&amp;quot; ; font-weight: normal ; font-size: 14px ; line-height: 19px&quot;&gt;&lt;div&gt;&lt;span&gt;ScenarioManager&lt;/span&gt;&lt;span&gt;::&lt;/span&gt;&lt;span&gt;begin_frame&lt;br&gt;&lt;br&gt;&lt;/span&gt;&lt;/div&gt;&lt;/div&gt;" style="rounded=1;whiteSpace=wrap;html=1;shadow=0;glass=0;sketch=0;fontSize=15;fillColor=none;fontColor=default;verticalAlign=top;align=center;autosize=1;arcSize=30;labelPosition=center;verticalLabelPosition=middle;labelBackgroundColor=none;" parent="1" vertex="1">
          <mxGeometry x="870" y="487.5" width="260" height="40" as="geometry" />
        </mxCell>
        <mxCell id="pJc1efH-xtK0zPpBtBS--33" value="&lt;span&gt;判断当前场景是否结束，是否要切换场景&lt;/span&gt;" style="text;whiteSpace=wrap;html=1;fontSize=15;fontColor=default;labelBackgroundColor=none;" parent="1" vertex="1">
          <mxGeometry x="850" y="542.5" width="300" height="30" as="geometry" />
        </mxCell>
        <mxCell id="pJc1efH-xtK0zPpBtBS--38" value="" style="edgeStyle=orthogonalEdgeStyle;rounded=0;orthogonalLoop=1;jettySize=auto;html=0;labelBackgroundColor=none;fontSize=15;fontColor=default;" parent="1" source="pJc1efH-xtK0zPpBtBS--34" target="pJc1efH-xtK0zPpBtBS--37" edge="1">
          <mxGeometry relative="1" as="geometry" />
        </mxCell>
        <mxCell id="pJc1efH-xtK0zPpBtBS--34" value="&lt;div style=&quot;font-family: &amp;quot;droid sans mono&amp;quot;, &amp;quot;monospace&amp;quot;, monospace, &amp;quot;droid sans fallback&amp;quot;; font-weight: normal; font-size: 14px; line-height: 19px;&quot;&gt;&lt;div&gt;&lt;span style=&quot;&quot;&gt;current_scenario&lt;/span&gt;&lt;span style=&quot;&quot;&gt;-&amp;gt;&lt;/span&gt;&lt;span style=&quot;&quot;&gt;run&lt;/span&gt;&lt;span style=&quot;&quot;&gt;(&lt;/span&gt;&lt;span style=&quot;&quot;&gt;)&lt;/span&gt;&lt;/div&gt;&lt;/div&gt;" style="rounded=1;whiteSpace=wrap;html=1;shadow=0;glass=0;sketch=0;fontSize=15;fillColor=none;fontColor=default;labelBackgroundColor=none;" parent="1" vertex="1">
          <mxGeometry x="870" y="597.5" width="260" height="40" as="geometry" />
        </mxCell>
        <mxCell id="pJc1efH-xtK0zPpBtBS--37" value="&lt;div style=&quot;font-family: &amp;quot;droid sans mono&amp;quot;, &amp;quot;monospace&amp;quot;, monospace, &amp;quot;droid sans fallback&amp;quot;; font-weight: normal; font-size: 14px; line-height: 19px;&quot;&gt;&lt;div&gt;&lt;span style=&quot;&quot;&gt;ScenarioManager&lt;/span&gt;&lt;span style=&quot;&quot;&gt;::&lt;/span&gt;&lt;span style=&quot;&quot;&gt;end_frame&lt;/span&gt;&lt;span style=&quot;&quot;&gt;(）&lt;/span&gt;&lt;/div&gt;&lt;/div&gt;" style="rounded=1;whiteSpace=wrap;html=1;shadow=0;glass=0;sketch=0;fontSize=15;fillColor=none;fontColor=default;labelBackgroundColor=none;" parent="1" vertex="1">
          <mxGeometry x="870" y="682.5" width="260" height="40" as="geometry" />
        </mxCell>
        <mxCell id="pJc1efH-xtK0zPpBtBS--39" value="运行场景" style="text;whiteSpace=wrap;html=1;fontSize=15;fontColor=default;align=center;labelBackgroundColor=none;" parent="1" vertex="1">
          <mxGeometry x="850" y="642.5" width="300" height="30" as="geometry" />
        </mxCell>
        <mxCell id="pJc1efH-xtK0zPpBtBS--40" value="更新场景是否完成" style="text;whiteSpace=wrap;html=1;fontSize=15;fontColor=default;align=center;labelBackgroundColor=none;" parent="1" vertex="1">
          <mxGeometry x="850" y="730" width="300" height="30" as="geometry" />
        </mxCell>
        <mxCell id="pJc1efH-xtK0zPpBtBS--42" style="edgeStyle=orthogonalEdgeStyle;rounded=0;orthogonalLoop=1;jettySize=auto;html=0;exitX=0.5;exitY=1;exitDx=0;exitDy=0;entryX=0.5;entryY=0;entryDx=0;entryDy=0;labelBackgroundColor=none;fontSize=15;fontColor=default;" parent="1" source="pJc1efH-xtK0zPpBtBS--41" target="pJc1efH-xtK0zPpBtBS--31" edge="1">
          <mxGeometry relative="1" as="geometry" />
        </mxCell>
        <mxCell id="pJc1efH-xtK0zPpBtBS--41" value="&lt;div style=&quot;font-family: &amp;quot;droid sans mono&amp;quot;, &amp;quot;monospace&amp;quot;, monospace, &amp;quot;droid sans fallback&amp;quot;; font-weight: normal; font-size: 14px; line-height: 19px;&quot;&gt;&lt;div&gt;&lt;span style=&quot;&quot;&gt;scenario_manager&lt;/span&gt;&lt;span style=&quot;&quot;&gt;-&amp;gt;&lt;/span&gt;&lt;span style=&quot;&quot;&gt;init()&lt;/span&gt;&lt;/div&gt;&lt;/div&gt;" style="rounded=1;whiteSpace=wrap;html=1;shadow=0;glass=0;sketch=0;fontSize=15;fillColor=none;fontColor=default;labelBackgroundColor=none;" parent="1" vertex="1">
          <mxGeometry x="870" y="390" width="260" height="40" as="geometry" />
        </mxCell>
        <mxCell id="pJc1efH-xtK0zPpBtBS--43" value="&lt;div&gt;根据ahs_command确定场景&lt;br&gt;&lt;/div&gt;" style="text;whiteSpace=wrap;html=1;fontSize=15;fontColor=default;align=center;labelBackgroundColor=none;" parent="1" vertex="1">
          <mxGeometry x="860" y="443" width="300" height="30" as="geometry" />
        </mxCell>
        <mxCell id="pJc1efH-xtK0zPpBtBS--45" value="CityRoadScenario" style="rounded=1;whiteSpace=wrap;html=1;shadow=0;glass=0;labelBackgroundColor=none;sketch=0;fontSize=15;fontColor=default;fillColor=none;container=0;" parent="1" vertex="1">
          <mxGeometry x="1480" y="412.5" width="240" height="60" as="geometry" />
        </mxCell>
        <mxCell id="pJc1efH-xtK0zPpBtBS--46" value="" style="endArrow=classic;html=1;rounded=0;labelBackgroundColor=none;fontSize=15;fontColor=default;entryX=0.5;entryY=0;entryDx=0;entryDy=0;" parent="1" target="pJc1efH-xtK0zPpBtBS--45" edge="1">
          <mxGeometry width="50" height="50" relative="1" as="geometry">
            <mxPoint x="1600" y="262.5" as="sourcePoint" />
            <mxPoint x="1370" y="552.5" as="targetPoint" />
          </mxGeometry>
        </mxCell>
        <mxCell id="pJc1efH-xtK0zPpBtBS--48" value="有新routing" style="edgeLabel;html=1;align=center;verticalAlign=middle;resizable=0;points=[];fontSize=15;fontColor=default;labelBackgroundColor=none;container=0;" parent="pJc1efH-xtK0zPpBtBS--46" vertex="1" connectable="0">
          <mxGeometry x="0.3467" y="2" relative="1" as="geometry">
            <mxPoint as="offset" />
          </mxGeometry>
        </mxCell>
        <mxCell id="pJc1efH-xtK0zPpBtBS--49" value="&lt;div style=&quot;font-family: &amp;quot;droid sans mono&amp;quot;, &amp;quot;monospace&amp;quot;, monospace, &amp;quot;droid sans fallback&amp;quot;; font-weight: normal; font-size: 14px; line-height: 19px;&quot;&gt;&lt;div&gt;&lt;span style=&quot;&quot;&gt;split_routing&lt;/span&gt;&lt;/div&gt;&lt;/div&gt;" style="ellipse;whiteSpace=wrap;html=1;align=center;treeFolding=1;treeMoving=1;newEdgeStyle={&quot;edgeStyle&quot;:&quot;entityRelationEdgeStyle&quot;,&quot;startArrow&quot;:&quot;none&quot;,&quot;endArrow&quot;:&quot;none&quot;,&quot;segment&quot;:10,&quot;curved&quot;:1};rounded=0;shadow=0;glass=0;labelBackgroundColor=none;sketch=0;fontSize=15;fontColor=default;fillColor=none;container=0;" parent="1" vertex="1">
          <mxGeometry x="1770" y="412.5" width="240" height="60" as="geometry" />
        </mxCell>
        <mxCell id="pJc1efH-xtK0zPpBtBS--50" value="" style="endArrow=classic;html=1;rounded=0;labelBackgroundColor=none;fontSize=15;fontColor=default;entryX=0.5;entryY=0;entryDx=0;entryDy=0;" parent="1" target="pJc1efH-xtK0zPpBtBS--49" edge="1">
          <mxGeometry width="50" height="50" relative="1" as="geometry">
            <mxPoint x="1890" y="262.5" as="sourcePoint" />
            <mxPoint x="1660" y="552.5" as="targetPoint" />
          </mxGeometry>
        </mxCell>
        <mxCell id="pJc1efH-xtK0zPpBtBS--51" value="有新ahs_command" style="edgeLabel;html=1;align=center;verticalAlign=middle;resizable=0;points=[];fontSize=15;fontColor=default;labelBackgroundColor=none;container=0;" parent="pJc1efH-xtK0zPpBtBS--50" vertex="1" connectable="0">
          <mxGeometry x="0.3467" y="2" relative="1" as="geometry">
            <mxPoint as="offset" />
          </mxGeometry>
        </mxCell>
        <mxCell id="pJc1efH-xtK0zPpBtBS--68" value="CityRoadScenario" style="rounded=1;whiteSpace=wrap;html=1;shadow=0;glass=0;labelBackgroundColor=none;sketch=0;fontSize=15;fontColor=default;fillColor=none;container=0;" parent="1" vertex="1">
          <mxGeometry x="2370" y="155" width="180" height="60" as="geometry" />
        </mxCell>
        <mxCell id="pJc1efH-xtK0zPpBtBS--69" value="" style="edgeStyle=orthogonalEdgeStyle;rounded=0;orthogonalLoop=1;jettySize=auto;html=0;labelBackgroundColor=none;fontSize=15;fontColor=default;curved=1;entryX=0;entryY=0.5;entryDx=0;entryDy=0;" parent="1" source="pJc1efH-xtK0zPpBtBS--49" target="pJc1efH-xtK0zPpBtBS--68" edge="1">
          <mxGeometry relative="1" as="geometry" />
        </mxCell>
        <mxCell id="pJc1efH-xtK0zPpBtBS--70" value="&lt;div style=&quot;font-family: &amp;quot;droid sans mono&amp;quot;, &amp;quot;monospace&amp;quot;, monospace, &amp;quot;droid sans fallback&amp;quot;; font-weight: normal; font-size: 14px; line-height: 19px;&quot;&gt;&lt;div&gt;&lt;span style=&quot;&quot;&gt;CRUISE_TO_LOAD_AREA&lt;br&gt;&lt;/span&gt;&lt;div style=&quot;font-family: &amp;quot;droid sans mono&amp;quot;, &amp;quot;monospace&amp;quot;, monospace, &amp;quot;droid sans fallback&amp;quot;; font-weight: normal; font-size: 14px; line-height: 19px;&quot;&gt;&lt;div&gt;&lt;span style=&quot;&quot;&gt;CRUISE_TO_DUMP_AREA&lt;/span&gt;&lt;/div&gt;&lt;/div&gt;&lt;span style=&quot;&quot;&gt;&lt;/span&gt;&lt;/div&gt;&lt;/div&gt;" style="edgeLabel;html=1;align=center;verticalAlign=middle;resizable=0;points=[];fontSize=15;fontColor=default;labelBackgroundColor=none;container=0;" parent="pJc1efH-xtK0zPpBtBS--69" vertex="1" connectable="0">
          <mxGeometry x="-0.1517" relative="1" as="geometry">
            <mxPoint y="-51" as="offset" />
          </mxGeometry>
        </mxCell>
        <mxCell id="pJc1efH-xtK0zPpBtBS--72" value="&lt;div style=&quot;font-family: &amp;quot;droid sans mono&amp;quot;, &amp;quot;monospace&amp;quot;, monospace, &amp;quot;droid sans fallback&amp;quot;; font-weight: normal; font-size: 14px; line-height: 19px;&quot;&gt;&lt;div&gt;&lt;span style=&quot;&quot;&gt;AHSParkingInScenario&lt;/span&gt;&lt;/div&gt;&lt;/div&gt;" style="rounded=1;whiteSpace=wrap;html=1;shadow=0;glass=0;labelBackgroundColor=none;sketch=0;fontSize=15;fontColor=default;fillColor=none;container=0;" parent="1" vertex="1">
          <mxGeometry x="2370" y="435" width="180" height="60" as="geometry" />
        </mxCell>
        <mxCell id="pJc1efH-xtK0zPpBtBS--73" value="" style="edgeStyle=orthogonalEdgeStyle;curved=1;rounded=0;orthogonalLoop=1;jettySize=auto;html=0;labelBackgroundColor=none;fontSize=15;fontColor=default;entryX=0;entryY=0.5;entryDx=0;entryDy=0;" parent="1" source="pJc1efH-xtK0zPpBtBS--49" target="pJc1efH-xtK0zPpBtBS--72" edge="1">
          <mxGeometry relative="1" as="geometry" />
        </mxCell>
        <mxCell id="pJc1efH-xtK0zPpBtBS--77" value="&lt;div style=&quot;font-family: &amp;quot;droid sans mono&amp;quot;, &amp;quot;monospace&amp;quot;, monospace, &amp;quot;droid sans fallback&amp;quot;; font-weight: normal; font-size: 14px; line-height: 19px;&quot;&gt;&lt;div&gt;&lt;span style=&quot;&quot;&gt;LOAD_AREA_PARKING_IN_STAGE_1&lt;br&gt;&lt;/span&gt;&lt;div style=&quot;font-family: &amp;quot;droid sans mono&amp;quot;, &amp;quot;monospace&amp;quot;, monospace, &amp;quot;droid sans fallback&amp;quot;; font-weight: normal; font-size: 14px; line-height: 19px;&quot;&gt;&lt;div&gt;&lt;span style=&quot;&quot;&gt;LOAD_AREA_PARKING_IN_STAGE_2&lt;br&gt;&lt;/span&gt;&lt;/div&gt;&lt;/div&gt;&lt;span style=&quot;&quot;&gt;&lt;/span&gt;&lt;/div&gt;&lt;/div&gt;" style="edgeLabel;html=1;align=center;verticalAlign=middle;resizable=0;points=[];fontSize=15;fontColor=default;labelBackgroundColor=none;container=0;" parent="pJc1efH-xtK0zPpBtBS--73" vertex="1" connectable="0">
          <mxGeometry x="0.2816" y="11" relative="1" as="geometry">
            <mxPoint x="17" y="-11" as="offset" />
          </mxGeometry>
        </mxCell>
        <mxCell id="pJc1efH-xtK0zPpBtBS--75" value="&lt;div style=&quot;font-family: &amp;quot;droid sans mono&amp;quot;, &amp;quot;monospace&amp;quot;, monospace, &amp;quot;droid sans fallback&amp;quot;; font-weight: normal; font-size: 14px; line-height: 19px;&quot;&gt;&lt;div&gt;&lt;span style=&quot;&quot;&gt;AHSDumpingScenario&lt;/span&gt;&lt;/div&gt;&lt;/div&gt;" style="rounded=1;whiteSpace=wrap;html=1;shadow=0;glass=0;labelBackgroundColor=none;sketch=0;fontSize=15;fontColor=default;fillColor=none;container=0;" parent="1" vertex="1">
          <mxGeometry x="2360" y="685" width="180" height="60" as="geometry" />
        </mxCell>
        <mxCell id="pJc1efH-xtK0zPpBtBS--76" style="edgeStyle=orthogonalEdgeStyle;curved=1;rounded=0;orthogonalLoop=1;jettySize=auto;html=0;entryX=0;entryY=0.5;entryDx=0;entryDy=0;labelBackgroundColor=none;fontSize=15;fontColor=default;" parent="1" source="pJc1efH-xtK0zPpBtBS--49" target="pJc1efH-xtK0zPpBtBS--75" edge="1">
          <mxGeometry relative="1" as="geometry" />
        </mxCell>
        <mxCell id="pJc1efH-xtK0zPpBtBS--78" value="&lt;div style=&quot;font-family: &amp;quot;droid sans mono&amp;quot;, &amp;quot;monospace&amp;quot;, monospace, &amp;quot;droid sans fallback&amp;quot;; font-weight: normal; font-size: 14px; line-height: 19px;&quot;&gt;&lt;div&gt;&lt;span style=&quot;&quot;&gt;AHS_DUMPING&lt;/span&gt;&lt;/div&gt;&lt;/div&gt;" style="edgeLabel;html=1;align=center;verticalAlign=middle;resizable=0;points=[];fontSize=15;fontColor=default;labelBackgroundColor=none;container=0;" parent="pJc1efH-xtK0zPpBtBS--76" vertex="1" connectable="0">
          <mxGeometry x="0.1474" y="3" relative="1" as="geometry">
            <mxPoint y="1" as="offset" />
          </mxGeometry>
        </mxCell>
        <mxCell id="pJc1efH-xtK0zPpBtBS--85" value="产生优化准备数据" style="edgeStyle=orthogonalEdgeStyle;curved=1;rounded=0;orthogonalLoop=1;jettySize=auto;html=0;labelBackgroundColor=none;fontSize=15;fontColor=default;exitX=0.5;exitY=1;exitDx=0;exitDy=0;" parent="1" source="zPEH12RnPpSnZzIr6eW2-2" target="pJc1efH-xtK0zPpBtBS--84" edge="1">
          <mxGeometry x="0.6" relative="1" as="geometry">
            <mxPoint as="offset" />
          </mxGeometry>
        </mxCell>
        <mxCell id="zPEH12RnPpSnZzIr6eW2-3" value="创建一个task_manager" style="edgeStyle=orthogonalEdgeStyle;rounded=0;orthogonalLoop=1;jettySize=auto;html=1;fontColor=default;labelBackgroundColor=none;" edge="1" parent="1" source="pJc1efH-xtK0zPpBtBS--83" target="zPEH12RnPpSnZzIr6eW2-2">
          <mxGeometry relative="1" as="geometry" />
        </mxCell>
        <mxCell id="pJc1efH-xtK0zPpBtBS--83" value="&lt;div style=&quot;font-family: &amp;quot;droid sans mono&amp;quot;, &amp;quot;monospace&amp;quot;, monospace, &amp;quot;droid sans fallback&amp;quot;; font-weight: normal; font-size: 14px; line-height: 19px;&quot;&gt;&lt;div&gt;&lt;span style=&quot;&quot;&gt;CityRoadScenario&lt;/span&gt;&lt;span style=&quot;&quot;&gt;::&lt;/span&gt;&lt;span style=&quot;&quot;&gt;run&lt;/span&gt;（）&lt;/div&gt;&lt;/div&gt;" style="rounded=1;whiteSpace=wrap;html=1;shadow=0;glass=0;sketch=0;fontSize=15;fillColor=none;fontColor=default;labelBackgroundColor=none;" parent="1" vertex="1">
          <mxGeometry x="370" y="840" width="260" height="40" as="geometry" />
        </mxCell>
        <mxCell id="pJc1efH-xtK0zPpBtBS--87" style="edgeStyle=orthogonalEdgeStyle;curved=1;rounded=0;orthogonalLoop=1;jettySize=auto;html=0;entryX=0.5;entryY=0;entryDx=0;entryDy=0;labelBackgroundColor=none;fontSize=15;fontColor=default;startArrow=none;" parent="1" target="pJc1efH-xtK0zPpBtBS--86" edge="1">
          <mxGeometry relative="1" as="geometry">
            <mxPoint x="500" y="1100" as="sourcePoint" />
          </mxGeometry>
        </mxCell>
        <mxCell id="pJc1efH-xtK0zPpBtBS--93" value="" style="edgeStyle=orthogonalEdgeStyle;curved=1;rounded=0;orthogonalLoop=1;jettySize=auto;html=0;labelBackgroundColor=none;fontSize=15;fontColor=default;" parent="1" source="pJc1efH-xtK0zPpBtBS--84" target="pJc1efH-xtK0zPpBtBS--92" edge="1">
          <mxGeometry relative="1" as="geometry" />
        </mxCell>
        <mxCell id="pJc1efH-xtK0zPpBtBS--84" value="&lt;div style=&quot;font-family: &amp;quot;droid sans mono&amp;quot;, &amp;quot;monospace&amp;quot;, monospace, &amp;quot;droid sans fallback&amp;quot;; font-weight: normal; font-size: 14px; line-height: 19px;&quot;&gt;&lt;div&gt;&lt;span style=&quot;&quot;&gt; &lt;/span&gt;&lt;span style=&quot;&quot;&gt;task_manager&lt;/span&gt;&lt;span style=&quot;&quot;&gt;-&amp;gt;&lt;/span&gt;&lt;span style=&quot;&quot;&gt;on_schedule_stage_prepare&lt;/span&gt;&lt;span style=&quot;&quot;&gt;()&lt;/span&gt;&lt;/div&gt;&lt;/div&gt;" style="rounded=1;whiteSpace=wrap;html=1;shadow=0;glass=0;sketch=0;fontSize=15;fillColor=none;fontColor=default;labelBackgroundColor=none;" parent="1" vertex="1">
          <mxGeometry x="360" y="1030" width="280" height="40" as="geometry" />
        </mxCell>
        <mxCell id="zPEH12RnPpSnZzIr6eW2-67" style="edgeStyle=none;shape=connector;rounded=0;orthogonalLoop=1;jettySize=auto;html=1;entryX=0.5;entryY=0;entryDx=0;entryDy=0;labelBackgroundColor=none;fontFamily=Helvetica;fontSize=11;fontColor=default;startArrow=none;startFill=0;endArrow=classic;endFill=1;strokeColor=default;" edge="1" parent="1" source="pJc1efH-xtK0zPpBtBS--86" target="zPEH12RnPpSnZzIr6eW2-12">
          <mxGeometry relative="1" as="geometry" />
        </mxCell>
        <mxCell id="pJc1efH-xtK0zPpBtBS--86" value="&lt;div style=&quot;font-family: &amp;quot;droid sans mono&amp;quot;, &amp;quot;monospace&amp;quot;, monospace, &amp;quot;droid sans fallback&amp;quot;; font-weight: normal; font-size: 14px; line-height: 19px;&quot;&gt;&lt;div&gt;&lt;span style=&quot;&quot;&gt; &lt;/span&gt;&lt;span style=&quot;&quot;&gt;task_manager&lt;/span&gt;&lt;span style=&quot;&quot;&gt;-&amp;gt;&lt;/span&gt;&lt;span style=&quot;&quot;&gt;schedule_stage_optimize（）&lt;/span&gt;&lt;/div&gt;&lt;/div&gt;" style="rounded=1;whiteSpace=wrap;html=1;shadow=0;glass=0;sketch=0;fontSize=15;fillColor=none;fontColor=default;labelBackgroundColor=none;" parent="1" vertex="1">
          <mxGeometry x="350" y="1120" width="300" height="40" as="geometry" />
        </mxCell>
        <mxCell id="pJc1efH-xtK0zPpBtBS--89" value="" style="edgeStyle=orthogonalEdgeStyle;curved=1;rounded=0;orthogonalLoop=1;jettySize=auto;html=0;entryX=0.5;entryY=0;entryDx=0;entryDy=0;labelBackgroundColor=none;fontSize=15;fontColor=default;endArrow=none;" parent="1" source="pJc1efH-xtK0zPpBtBS--84" edge="1">
          <mxGeometry relative="1" as="geometry">
            <mxPoint x="500" y="1070" as="sourcePoint" />
            <mxPoint x="500" y="1080" as="targetPoint" />
          </mxGeometry>
        </mxCell>
        <mxCell id="pJc1efH-xtK0zPpBtBS--95" value="初始化参考线决策器，&#xa;从routing加载passage的segment" style="edgeStyle=orthogonalEdgeStyle;curved=1;rounded=0;orthogonalLoop=1;jettySize=auto;html=0;labelBackgroundColor=none;fontSize=15;fontColor=default;entryX=0.5;entryY=0;entryDx=0;entryDy=0;" parent="1" source="pJc1efH-xtK0zPpBtBS--92" target="pJc1efH-xtK0zPpBtBS--102" edge="1">
          <mxGeometry relative="1" as="geometry">
            <mxPoint x="1040" y="1150" as="targetPoint" />
          </mxGeometry>
        </mxCell>
        <mxCell id="pJc1efH-xtK0zPpBtBS--92" value="&lt;div style=&quot;font-family: &amp;quot;droid sans mono&amp;quot;, &amp;quot;monospace&amp;quot;, monospace, &amp;quot;droid sans fallback&amp;quot;; font-weight: normal; font-size: 14px; line-height: 19px;&quot;&gt;&lt;div&gt;&lt;span style=&quot;&quot;&gt;TaskManager&lt;/span&gt;&lt;span style=&quot;&quot;&gt;::&lt;/span&gt;&lt;span style=&quot;&quot;&gt;on_schedule_stage_prepare&lt;/span&gt;&lt;span style=&quot;&quot;&gt;()&lt;/span&gt;&lt;/div&gt;&lt;/div&gt;" style="rounded=1;whiteSpace=wrap;html=1;shadow=0;glass=0;sketch=0;fontSize=15;fillColor=none;fontColor=default;labelBackgroundColor=none;" parent="1" vertex="1">
          <mxGeometry x="900" y="1030" width="280" height="40" as="geometry" />
        </mxCell>
        <mxCell id="pJc1efH-xtK0zPpBtBS--106" value="对每条粗参考线构造一个Taskinfo" style="edgeStyle=orthogonalEdgeStyle;rounded=0;orthogonalLoop=1;jettySize=auto;html=0;entryX=0.5;entryY=0;entryDx=0;entryDy=0;labelBackgroundColor=none;fontSize=15;fontColor=default;" parent="1" source="pJc1efH-xtK0zPpBtBS--102" target="pJc1efH-xtK0zPpBtBS--104" edge="1">
          <mxGeometry relative="1" as="geometry" />
        </mxCell>
        <mxCell id="pJc1efH-xtK0zPpBtBS--102" value="&lt;div style=&quot;font-family: &amp;quot;droid sans mono&amp;quot;, &amp;quot;monospace&amp;quot;, monospace, &amp;quot;droid sans fallback&amp;quot;; font-weight: normal; font-size: 14px; line-height: 19px;&quot;&gt;&lt;div&gt;&lt;span style=&quot;&quot;&gt; &lt;/span&gt;&lt;span style=&quot;&quot;&gt;refline_decider&lt;/span&gt;&lt;span style=&quot;&quot;&gt;-&amp;gt;&lt;/span&gt;&lt;span style=&quot;&quot;&gt;init&lt;/span&gt;&lt;span style=&quot;&quot;&gt;()&lt;/span&gt;&lt;/div&gt;&lt;/div&gt;" style="rounded=1;whiteSpace=wrap;html=1;shadow=0;glass=0;sketch=0;fontSize=15;fillColor=none;fontColor=default;labelBackgroundColor=none;" parent="1" vertex="1">
          <mxGeometry x="900" y="1160" width="280" height="40" as="geometry" />
        </mxCell>
        <mxCell id="pJc1efH-xtK0zPpBtBS--108" value="" style="edgeStyle=orthogonalEdgeStyle;rounded=0;orthogonalLoop=1;jettySize=auto;html=0;labelBackgroundColor=none;fontSize=15;fontColor=default;" parent="1" source="pJc1efH-xtK0zPpBtBS--104" target="pJc1efH-xtK0zPpBtBS--107" edge="1">
          <mxGeometry relative="1" as="geometry" />
        </mxCell>
        <mxCell id="pJc1efH-xtK0zPpBtBS--109" value="对每一个task_info参考线进行平滑，&lt;br&gt;构造子投影器" style="edgeLabel;html=1;align=center;verticalAlign=middle;resizable=0;points=[];fontSize=15;fontColor=default;labelBackgroundColor=none;" parent="pJc1efH-xtK0zPpBtBS--108" vertex="1" connectable="0">
          <mxGeometry x="0.25" y="1" relative="1" as="geometry">
            <mxPoint x="-1" y="-15" as="offset" />
          </mxGeometry>
        </mxCell>
        <mxCell id="pJc1efH-xtK0zPpBtBS--104" value="&lt;div style=&quot;font-family: &amp;quot;droid sans mono&amp;quot;, &amp;quot;monospace&amp;quot;, monospace, &amp;quot;droid sans fallback&amp;quot;; font-weight: normal; font-size: 14px; line-height: 19px;&quot;&gt;&lt;div&gt;&lt;span style=&quot;&quot;&gt;_task_info_list&lt;/span&gt;&lt;span style=&quot;&quot;&gt;.&lt;/span&gt;&lt;span style=&quot;&quot;&gt;emplace_back&lt;/span&gt;&lt;span style=&quot;&quot;&gt;(&lt;/span&gt;&lt;span style=&quot;&quot;&gt;refline_decider&lt;/span&gt;&lt;span style=&quot;&quot;&gt;-&amp;gt;&lt;/span&gt;&lt;span style=&quot;&quot;&gt;next_ref_info&lt;/span&gt;&lt;span style=&quot;&quot;&gt;())&lt;/span&gt;&lt;/div&gt;&lt;/div&gt;" style="rounded=1;whiteSpace=wrap;html=1;shadow=0;glass=0;sketch=0;fontSize=15;fillColor=none;fontColor=default;labelBackgroundColor=none;" parent="1" vertex="1">
          <mxGeometry x="820" y="1275" width="440" height="40" as="geometry" />
        </mxCell>
        <mxCell id="pJc1efH-xtK0zPpBtBS--111" value="" style="edgeStyle=orthogonalEdgeStyle;rounded=0;orthogonalLoop=1;jettySize=auto;html=0;labelBackgroundColor=none;fontSize=15;fontColor=default;" parent="1" source="pJc1efH-xtK0zPpBtBS--107" target="pJc1efH-xtK0zPpBtBS--110" edge="1">
          <mxGeometry relative="1" as="geometry" />
        </mxCell>
        <mxCell id="pJc1efH-xtK0zPpBtBS--107" value="&lt;div style=&quot;font-family: &amp;quot;droid sans mono&amp;quot;, &amp;quot;monospace&amp;quot;, monospace, &amp;quot;droid sans fallback&amp;quot;; font-weight: normal; font-size: 14px; line-height: 19px;&quot;&gt;&lt;div&gt;&lt;div style=&quot;font-family: &amp;quot;droid sans mono&amp;quot;, &amp;quot;monospace&amp;quot;, monospace, &amp;quot;droid sans fallback&amp;quot;; font-weight: normal; font-size: 14px; line-height: 19px;&quot;&gt;&lt;div&gt;&lt;span style=&quot;&quot;&gt;TaskManager&lt;/span&gt;&lt;span style=&quot;&quot;&gt;::&lt;/span&gt;&lt;span style=&quot;&quot;&gt;make_sub_projector()&lt;/span&gt;&lt;/div&gt;&lt;/div&gt;&lt;/div&gt;&lt;/div&gt;" style="rounded=1;whiteSpace=wrap;html=1;shadow=0;glass=0;sketch=0;fontSize=15;fillColor=none;fontColor=default;labelBackgroundColor=none;" parent="1" vertex="1">
          <mxGeometry x="820" y="1395" width="440" height="40" as="geometry" />
        </mxCell>
        <mxCell id="EfGChhd1LAklIjL-8zQx-2" value="" style="edgeStyle=orthogonalEdgeStyle;rounded=0;orthogonalLoop=1;jettySize=auto;html=1;fontColor=default;labelBackgroundColor=none;" parent="1" source="pJc1efH-xtK0zPpBtBS--110" target="EfGChhd1LAklIjL-8zQx-1" edge="1">
          <mxGeometry relative="1" as="geometry" />
        </mxCell>
        <mxCell id="pJc1efH-xtK0zPpBtBS--110" value="&lt;div style=&quot;font-family: &amp;quot;droid sans mono&amp;quot;, &amp;quot;monospace&amp;quot;, monospace, &amp;quot;droid sans fallback&amp;quot;; font-weight: normal; font-size: 14px; line-height: 19px;&quot;&gt;&lt;div&gt;&lt;span style=&quot;&quot;&gt;TaskManager&lt;/span&gt;&lt;span style=&quot;&quot;&gt;::&lt;/span&gt;&lt;span style=&quot;&quot;&gt;construct_decision_data&lt;/span&gt;&lt;span style=&quot;&quot;&gt;()&lt;/span&gt;&lt;/div&gt;&lt;/div&gt;" style="rounded=1;whiteSpace=wrap;html=1;shadow=0;glass=0;sketch=0;fontSize=15;fillColor=none;fontColor=default;labelBackgroundColor=none;" parent="1" vertex="1">
          <mxGeometry x="820" y="1515" width="440" height="40" as="geometry" />
        </mxCell>
        <mxCell id="pJc1efH-xtK0zPpBtBS--112" value="对每一个task_info初始化决策数据&lt;br&gt;将障碍物投影到各个projector坐标系上" style="edgeLabel;html=1;align=center;verticalAlign=middle;resizable=0;points=[];fontSize=15;fontColor=default;labelBackgroundColor=none;" parent="1" vertex="1" connectable="0">
          <mxGeometry x="1040" y="1470" as="geometry" />
        </mxCell>
        <mxCell id="EfGChhd1LAklIjL-8zQx-1" value="&lt;div style=&quot;font-family: &amp;quot;droid sans mono&amp;quot;, &amp;quot;monospace&amp;quot;, monospace, &amp;quot;droid sans fallback&amp;quot;; font-weight: normal; font-size: 14px; line-height: 19px;&quot;&gt;&lt;div style=&quot;font-family: &amp;quot;droid sans mono&amp;quot; , monospace , monospace , &amp;quot;droid sans fallback&amp;quot; ; line-height: 19px&quot;&gt;&lt;span style=&quot;&quot;&gt;ProjectUtil&lt;/span&gt;::&lt;span style=&quot;&quot;&gt;project_obstacle_trajectories&lt;/span&gt;(）&lt;/div&gt;&lt;/div&gt;" style="rounded=1;whiteSpace=wrap;html=1;shadow=0;glass=0;sketch=0;fontSize=15;fillColor=none;fontColor=default;labelBackgroundColor=none;" parent="1" vertex="1">
          <mxGeometry x="820" y="1635" width="440" height="40" as="geometry" />
        </mxCell>
        <mxCell id="zPEH12RnPpSnZzIr6eW2-1" value="将动态障碍物轨迹的box投影到各个projector上" style="edgeLabel;html=1;align=center;verticalAlign=middle;resizable=0;points=[];fontSize=15;fontColor=default;labelBackgroundColor=none;" vertex="1" connectable="0" parent="1">
          <mxGeometry x="1050" y="1600" as="geometry" />
        </mxCell>
        <mxCell id="zPEH12RnPpSnZzIr6eW2-7" value="" style="edgeStyle=orthogonalEdgeStyle;rounded=0;orthogonalLoop=1;jettySize=auto;html=1;fontColor=default;labelBackgroundColor=none;" edge="1" parent="1" source="zPEH12RnPpSnZzIr6eW2-2" target="zPEH12RnPpSnZzIr6eW2-6">
          <mxGeometry relative="1" as="geometry" />
        </mxCell>
        <mxCell id="zPEH12RnPpSnZzIr6eW2-2" value="&lt;div style=&quot;font-family: &amp;quot;droid sans mono&amp;quot;, &amp;quot;monospace&amp;quot;, monospace, &amp;quot;droid sans fallback&amp;quot;; font-weight: normal; font-size: 14px; line-height: 19px;&quot;&gt;&lt;div&gt;&lt;span style=&quot;&quot;&gt;Planner&lt;/span&gt;&lt;span style=&quot;&quot;&gt;::&lt;/span&gt;&lt;span style=&quot;&quot;&gt;instance&lt;/span&gt;&lt;span style=&quot;&quot;&gt;()-&amp;gt;&lt;/span&gt;&lt;span style=&quot;&quot;&gt;make_plan_stage_prepare&lt;/span&gt;&lt;span style=&quot;&quot;&gt;(&lt;/span&gt;&lt;span style=&quot;&quot;&gt;)&lt;/span&gt;&lt;/div&gt;&lt;/div&gt;" style="rounded=1;whiteSpace=wrap;html=1;shadow=0;glass=0;sketch=0;fontSize=15;fillColor=none;fontColor=default;labelBackgroundColor=none;" vertex="1" parent="1">
          <mxGeometry x="310" y="940" width="380" height="40" as="geometry" />
        </mxCell>
        <mxCell id="zPEH12RnPpSnZzIr6eW2-9" value="创建city road的优化器生成器" style="edgeStyle=orthogonalEdgeStyle;rounded=0;orthogonalLoop=1;jettySize=auto;html=1;fontColor=default;labelBackgroundColor=none;" edge="1" parent="1" source="zPEH12RnPpSnZzIr6eW2-6" target="zPEH12RnPpSnZzIr6eW2-8">
          <mxGeometry relative="1" as="geometry" />
        </mxCell>
        <mxCell id="zPEH12RnPpSnZzIr6eW2-6" value="n&lt;span style=&quot;&quot;&gt;ew&lt;/span&gt;&lt;span style=&quot;&quot;&gt; &lt;/span&gt;&lt;span style=&quot;&quot;&gt;DefaultTask&lt;/span&gt;&lt;span style=&quot;&quot;&gt;(&quot;task&quot;&lt;/span&gt;&lt;span style=&quot;&quot;&gt;)&lt;/span&gt;" style="rounded=1;whiteSpace=wrap;html=1;shadow=0;glass=0;sketch=0;fontSize=15;fillColor=none;fontColor=default;labelBackgroundColor=none;" vertex="1" parent="1">
          <mxGeometry x="-150" y="940" width="380" height="40" as="geometry" />
        </mxCell>
        <mxCell id="zPEH12RnPpSnZzIr6eW2-11" value="从plan_config.json加载优化器" style="edgeStyle=orthogonalEdgeStyle;rounded=0;orthogonalLoop=1;jettySize=auto;html=1;fontColor=default;labelBackgroundColor=none;" edge="1" parent="1" source="zPEH12RnPpSnZzIr6eW2-8" target="zPEH12RnPpSnZzIr6eW2-10">
          <mxGeometry relative="1" as="geometry" />
        </mxCell>
        <mxCell id="zPEH12RnPpSnZzIr6eW2-8" value="&lt;div style=&quot;font-family: &amp;quot;droid sans mono&amp;quot;, &amp;quot;monospace&amp;quot;, monospace, &amp;quot;droid sans fallback&amp;quot;; font-weight: normal; font-size: 14px; line-height: 19px;&quot;&gt;&lt;div&gt;&lt;span style=&quot;&quot;&gt;creator&lt;/span&gt;&lt;span style=&quot;&quot;&gt; = &lt;/span&gt;&lt;span style=&quot;&quot;&gt;PlannerFactory&lt;/span&gt;&lt;span style=&quot;&quot;&gt;::&lt;/span&gt;&lt;span style=&quot;&quot;&gt;instance&lt;/span&gt;&lt;span style=&quot;&quot;&gt;()-&amp;gt;&lt;/span&gt;&lt;span style=&quot;&quot;&gt;create_optimizer_creator&lt;/span&gt;&lt;span style=&quot;&quot;&gt;()&lt;/span&gt;&lt;/div&gt;&lt;/div&gt;" style="rounded=1;whiteSpace=wrap;html=1;shadow=0;glass=0;sketch=0;fontSize=15;fillColor=none;fontColor=default;labelBackgroundColor=none;" vertex="1" parent="1">
          <mxGeometry x="-150" y="1050" width="380" height="40" as="geometry" />
        </mxCell>
        <mxCell id="zPEH12RnPpSnZzIr6eW2-10" value="&lt;div style=&quot;font-family: &amp;quot;droid sans mono&amp;quot;, &amp;quot;monospace&amp;quot;, monospace, &amp;quot;droid sans fallback&amp;quot;; font-weight: normal; font-size: 14px; line-height: 19px;&quot;&gt;&lt;div&gt;&lt;span style=&quot;&quot;&gt; &lt;/span&gt;&lt;span style=&quot;&quot;&gt;_optimizer_names&lt;/span&gt;&lt;span style=&quot;&quot;&gt; &lt;/span&gt;&lt;span style=&quot;&quot;&gt;=&lt;/span&gt;&lt;span style=&quot;&quot;&gt; &lt;/span&gt;&lt;span style=&quot;&quot;&gt;ConfigureManager&lt;/span&gt;&lt;span style=&quot;&quot;&gt;::&lt;/span&gt;&lt;span style=&quot;&quot;&gt;instance&lt;/span&gt;&lt;span style=&quot;&quot;&gt;()-&amp;gt;&lt;/span&gt;&lt;span style=&quot;&quot;&gt;get_optimizer_names&lt;/span&gt;&lt;span style=&quot;&quot;&gt;(&lt;/span&gt;&lt;span style=&quot;&quot;&gt;name&lt;/span&gt;&lt;span style=&quot;&quot;&gt;)&lt;/span&gt;&lt;/div&gt;&lt;/div&gt;" style="rounded=1;whiteSpace=wrap;html=1;shadow=0;glass=0;sketch=0;fontSize=15;fillColor=none;fontColor=default;labelBackgroundColor=none;" vertex="1" parent="1">
          <mxGeometry x="-150" y="1150" width="380" height="40" as="geometry" />
        </mxCell>
        <mxCell id="zPEH12RnPpSnZzIr6eW2-12" value="&lt;div style=&quot;font-family: &amp;quot;droid sans mono&amp;quot;, &amp;quot;monospace&amp;quot;, monospace, &amp;quot;droid sans fallback&amp;quot;; font-weight: normal; font-size: 14px; line-height: 19px;&quot;&gt;&lt;div&gt;&lt;span style=&quot;&quot;&gt;_task&lt;/span&gt;&lt;span style=&quot;&quot;&gt;-&amp;gt;&lt;/span&gt;&lt;span style=&quot;&quot;&gt;execute&lt;/span&gt;&lt;span style=&quot;&quot;&gt;(&lt;/span&gt;&lt;span style=&quot;&quot;&gt;task_info&lt;/span&gt;&lt;span style=&quot;&quot;&gt;)&lt;/span&gt;&lt;/div&gt;&lt;/div&gt;" style="rounded=1;whiteSpace=wrap;html=1;shadow=0;glass=0;sketch=0;fontSize=15;fillColor=none;fontColor=default;labelBackgroundColor=none;" vertex="1" parent="1">
          <mxGeometry x="350" y="1200" width="300" height="40" as="geometry" />
        </mxCell>
        <mxCell id="zPEH12RnPpSnZzIr6eW2-15" value="" style="endArrow=none;html=1;rounded=0;edgeStyle=orthogonalEdgeStyle;fontColor=default;labelBackgroundColor=none;startArrow=classic;startFill=1;endFill=0;exitX=0.5;exitY=0;exitDx=0;exitDy=0;curved=1;" edge="1" parent="1" source="zPEH12RnPpSnZzIr6eW2-61" target="zPEH12RnPpSnZzIr6eW2-12">
          <mxGeometry width="50" height="50" relative="1" as="geometry">
            <mxPoint x="-319.99999999999955" y="760" as="sourcePoint" />
            <mxPoint x="1360" y="890" as="targetPoint" />
            <Array as="points">
              <mxPoint x="-350" y="830" />
              <mxPoint x="280" y="830" />
              <mxPoint x="280" y="1220" />
            </Array>
          </mxGeometry>
        </mxCell>
        <mxCell id="zPEH12RnPpSnZzIr6eW2-24" style="edgeStyle=orthogonalEdgeStyle;curved=1;rounded=0;orthogonalLoop=1;jettySize=auto;html=1;" edge="1" parent="1" source="zPEH12RnPpSnZzIr6eW2-18" target="zPEH12RnPpSnZzIr6eW2-19">
          <mxGeometry relative="1" as="geometry" />
        </mxCell>
        <mxCell id="zPEH12RnPpSnZzIr6eW2-18" value="&lt;div style=&quot;color: rgb(212, 212, 212); background-color: rgb(30, 30, 30); font-family: &amp;quot;droid sans mono&amp;quot;, &amp;quot;monospace&amp;quot;, monospace, &amp;quot;droid sans fallback&amp;quot;; font-weight: normal; font-size: 14px; line-height: 19px;&quot;&gt;&lt;div&gt;&lt;span style=&quot;color: #d4d4d4&quot;&gt;{&lt;/span&gt;&lt;/div&gt;&lt;div&gt;&lt;span style=&quot;color: #d4d4d4&quot;&gt;      &lt;/span&gt;&lt;span style=&quot;color: #9cdcfe&quot;&gt;&quot;name&quot;&lt;/span&gt;&lt;span style=&quot;color: #d4d4d4&quot;&gt;:&lt;/span&gt;&lt;span style=&quot;color: #ce9178&quot;&gt;&quot;task&quot;&lt;/span&gt;&lt;span style=&quot;color: #d4d4d4&quot;&gt;,&lt;/span&gt;&lt;/div&gt;&lt;div&gt;&lt;span style=&quot;color: #d4d4d4&quot;&gt;      &lt;/span&gt;&lt;span style=&quot;color: #9cdcfe&quot;&gt;&quot;type&quot;&lt;/span&gt;&lt;span style=&quot;color: #d4d4d4&quot;&gt;:&lt;/span&gt;&lt;span style=&quot;color: #ce9178&quot;&gt;&quot;task&quot;&lt;/span&gt;&lt;span style=&quot;color: #d4d4d4&quot;&gt;,&lt;/span&gt;&lt;/div&gt;&lt;div&gt;&lt;span style=&quot;color: #d4d4d4&quot;&gt;      &lt;/span&gt;&lt;span style=&quot;color: #9cdcfe&quot;&gt;&quot;optimizer_creator&quot;&lt;/span&gt;&lt;span style=&quot;color: #d4d4d4&quot;&gt;: &lt;/span&gt;&lt;span style=&quot;color: #ce9178&quot;&gt;&quot;city_road&quot;&lt;/span&gt;&lt;span style=&quot;color: #d4d4d4&quot;&gt;,&lt;/span&gt;&lt;/div&gt;&lt;div&gt;&lt;span style=&quot;color: #d4d4d4&quot;&gt;      &lt;/span&gt;&lt;span style=&quot;color: #9cdcfe&quot;&gt;&quot;optimizers&quot;&lt;/span&gt;&lt;span style=&quot;color: #d4d4d4&quot;&gt;: [&lt;/span&gt;&lt;/div&gt;&lt;div&gt;&lt;span style=&quot;color: #d4d4d4&quot;&gt;        &lt;/span&gt;&lt;span style=&quot;color: #ce9178&quot;&gt;&quot;initializer&quot;&lt;/span&gt;&lt;span style=&quot;color: #d4d4d4&quot;&gt;,&lt;/span&gt;&lt;/div&gt;&lt;div&gt;&lt;span style=&quot;color: #d4d4d4&quot;&gt;        &lt;/span&gt;&lt;span style=&quot;color: #ce9178&quot;&gt;&quot;common_analysis&quot;&lt;/span&gt;&lt;span style=&quot;color: #d4d4d4&quot;&gt;,&lt;/span&gt;&lt;/div&gt;&lt;div&gt;&lt;span style=&quot;color: #d4d4d4&quot;&gt;        &lt;/span&gt;&lt;span style=&quot;color: #ce9178&quot;&gt;&quot;path_optimizer&quot;&lt;/span&gt;&lt;span style=&quot;color: #d4d4d4&quot;&gt;,&lt;/span&gt;&lt;/div&gt;&lt;div&gt;&lt;span style=&quot;color: #d4d4d4&quot;&gt;        &lt;/span&gt;&lt;span style=&quot;color: #ce9178&quot;&gt;&quot;traffic_law&quot;&lt;/span&gt;&lt;span style=&quot;color: #d4d4d4&quot;&gt;,&lt;/span&gt;&lt;/div&gt;&lt;div&gt;&lt;span style=&quot;color: #d4d4d4&quot;&gt;        &lt;/span&gt;&lt;span style=&quot;color: #ce9178&quot;&gt;&quot;merge_reuse_path&quot;&lt;/span&gt;&lt;span style=&quot;color: #d4d4d4&quot;&gt;,&lt;/span&gt;&lt;/div&gt;&lt;div&gt;&lt;span style=&quot;color: #d4d4d4&quot;&gt;        &lt;/span&gt;&lt;span style=&quot;color: #ce9178&quot;&gt;&quot;auto_speed_optimizer&quot;&lt;/span&gt;&lt;span style=&quot;color: #d4d4d4&quot;&gt;,&lt;/span&gt;&lt;/div&gt;&lt;div&gt;&lt;span style=&quot;color: #d4d4d4&quot;&gt;        &lt;/span&gt;&lt;span style=&quot;color: #ce9178&quot;&gt;&quot;longtitude_decision&quot;&lt;/span&gt;&lt;span style=&quot;color: #d4d4d4&quot;&gt;,&lt;/span&gt;&lt;/div&gt;&lt;div&gt;&lt;span style=&quot;color: #d4d4d4&quot;&gt;        &lt;/span&gt;&lt;span style=&quot;color: #ce9178&quot;&gt;&quot;obs_decide&quot;&lt;/span&gt;&lt;/div&gt;&lt;div&gt;&lt;span style=&quot;color: #d4d4d4&quot;&gt;      ]&lt;/span&gt;&lt;/div&gt;&lt;div&gt;&lt;span style=&quot;color: #d4d4d4&quot;&gt;    }&lt;/span&gt;&lt;/div&gt;&lt;/div&gt;" style="text;whiteSpace=wrap;html=1;" vertex="1" parent="1">
          <mxGeometry x="1920" y="1140" width="240" height="300" as="geometry" />
        </mxCell>
        <mxCell id="zPEH12RnPpSnZzIr6eW2-26" style="edgeStyle=orthogonalEdgeStyle;curved=1;rounded=0;orthogonalLoop=1;jettySize=auto;html=1;" edge="1" parent="1" source="zPEH12RnPpSnZzIr6eW2-19" target="zPEH12RnPpSnZzIr6eW2-21">
          <mxGeometry relative="1" as="geometry" />
        </mxCell>
        <mxCell id="zPEH12RnPpSnZzIr6eW2-27" style="edgeStyle=orthogonalEdgeStyle;curved=1;rounded=0;orthogonalLoop=1;jettySize=auto;html=1;" edge="1" parent="1" source="zPEH12RnPpSnZzIr6eW2-19" target="zPEH12RnPpSnZzIr6eW2-22">
          <mxGeometry relative="1" as="geometry" />
        </mxCell>
        <mxCell id="zPEH12RnPpSnZzIr6eW2-19" value="&lt;div style=&quot;color: rgb(212 , 212 , 212) ; background-color: rgb(30 , 30 , 30) ; font-family: &amp;#34;droid sans mono&amp;#34; , &amp;#34;monospace&amp;#34; , monospace , &amp;#34;droid sans fallback&amp;#34; ; font-weight: normal ; font-size: 14px ; line-height: 19px&quot;&gt;&lt;div&gt;&lt;span style=&quot;color: #d4d4d4&quot;&gt;    {&lt;/span&gt;&lt;/div&gt;&lt;div&gt;&lt;span style=&quot;color: #d4d4d4&quot;&gt;      &lt;/span&gt;&lt;span style=&quot;color: #9cdcfe&quot;&gt;&quot;name&quot;&lt;/span&gt;&lt;span style=&quot;color: #d4d4d4&quot;&gt;: &lt;/span&gt;&lt;span style=&quot;color: #ce9178&quot;&gt;&quot;path_optimizer&quot;&lt;/span&gt;&lt;span style=&quot;color: #d4d4d4&quot;&gt;,&lt;/span&gt;&lt;/div&gt;&lt;div&gt;&lt;span style=&quot;color: #d4d4d4&quot;&gt;      &lt;/span&gt;&lt;span style=&quot;color: #9cdcfe&quot;&gt;&quot;type&quot;&lt;/span&gt;&lt;span style=&quot;color: #d4d4d4&quot;&gt;: &lt;/span&gt;&lt;span style=&quot;color: #ce9178&quot;&gt;&quot;run_until_success&quot;&lt;/span&gt;&lt;span style=&quot;color: #d4d4d4&quot;&gt;,&lt;/span&gt;&lt;/div&gt;&lt;div&gt;&lt;span style=&quot;color: #d4d4d4&quot;&gt;      &lt;/span&gt;&lt;span style=&quot;color: #9cdcfe&quot;&gt;&quot;children&quot;&lt;/span&gt;&lt;span style=&quot;color: #d4d4d4&quot;&gt;: [&lt;/span&gt;&lt;/div&gt;&lt;div&gt;&lt;span style=&quot;color: #d4d4d4&quot;&gt;        &lt;/span&gt;&lt;span style=&quot;color: #ce9178&quot;&gt;&quot;advanced_path_optimizer&quot;&lt;/span&gt;&lt;span style=&quot;color: #d4d4d4&quot;&gt;,&lt;/span&gt;&lt;/div&gt;&lt;div&gt;&lt;span style=&quot;color: #d4d4d4&quot;&gt;        &lt;/span&gt;&lt;span style=&quot;color: #ce9178&quot;&gt;&quot;basic_path_optimizer&quot;&lt;/span&gt;&lt;/div&gt;&lt;div&gt;&lt;span style=&quot;color: #d4d4d4&quot;&gt;        ]&lt;/span&gt;&lt;/div&gt;&lt;div&gt;&lt;span style=&quot;color: #d4d4d4&quot;&gt;    }&lt;/span&gt;&lt;/div&gt;&lt;/div&gt;" style="text;whiteSpace=wrap;html=1;" vertex="1" parent="1">
          <mxGeometry x="2280" y="1085" width="200" height="165" as="geometry" />
        </mxCell>
        <mxCell id="zPEH12RnPpSnZzIr6eW2-21" value="&lt;div style=&quot;color: rgb(212, 212, 212); background-color: rgb(30, 30, 30); font-family: &amp;quot;droid sans mono&amp;quot;, &amp;quot;monospace&amp;quot;, monospace, &amp;quot;droid sans fallback&amp;quot;; font-weight: normal; font-size: 14px; line-height: 19px;&quot;&gt;&lt;div&gt;&lt;span style=&quot;color: #d4d4d4&quot;&gt;{&lt;/span&gt;&lt;/div&gt;&lt;div&gt;&lt;span style=&quot;color: #d4d4d4&quot;&gt;      &lt;/span&gt;&lt;span style=&quot;color: #9cdcfe&quot;&gt;&quot;name&quot;&lt;/span&gt;&lt;span style=&quot;color: #d4d4d4&quot;&gt;: &lt;/span&gt;&lt;span style=&quot;color: #ce9178&quot;&gt;&quot;advanced_path_optimizer&quot;&lt;/span&gt;&lt;span style=&quot;color: #d4d4d4&quot;&gt;,&lt;/span&gt;&lt;/div&gt;&lt;div&gt;&lt;span style=&quot;color: #d4d4d4&quot;&gt;      &lt;/span&gt;&lt;span style=&quot;color: #9cdcfe&quot;&gt;&quot;type&quot;&lt;/span&gt;&lt;span style=&quot;color: #d4d4d4&quot;&gt;: &lt;/span&gt;&lt;span style=&quot;color: #ce9178&quot;&gt;&quot;run_all&quot;&lt;/span&gt;&lt;span style=&quot;color: #d4d4d4&quot;&gt;,&lt;/span&gt;&lt;/div&gt;&lt;div&gt;&lt;span style=&quot;color: #d4d4d4&quot;&gt;      &lt;/span&gt;&lt;span style=&quot;color: #9cdcfe&quot;&gt;&quot;children&quot;&lt;/span&gt;&lt;span style=&quot;color: #d4d4d4&quot;&gt;: [&lt;/span&gt;&lt;/div&gt;&lt;div&gt;&lt;span style=&quot;color: #d4d4d4&quot;&gt;        &lt;/span&gt;&lt;span style=&quot;color: #ce9178&quot;&gt;&quot;qp_spline_path_optimizer&quot;&lt;/span&gt;&lt;span style=&quot;color: #d4d4d4&quot;&gt;,&lt;/span&gt;&lt;/div&gt;&lt;div&gt;&lt;span style=&quot;color: #d4d4d4&quot;&gt;        &lt;/span&gt;&lt;span style=&quot;color: #ce9178&quot;&gt;&quot;path_guard&quot;&lt;/span&gt;&lt;/div&gt;&lt;div&gt;&lt;span style=&quot;color: #d4d4d4&quot;&gt;      ]&lt;/span&gt;&lt;/div&gt;&lt;div&gt;&lt;span style=&quot;color: #d4d4d4&quot;&gt;    }&lt;/span&gt;&lt;/div&gt;&lt;/div&gt;" style="text;whiteSpace=wrap;html=1;" vertex="1" parent="1">
          <mxGeometry x="2650" y="980" width="260" height="170" as="geometry" />
        </mxCell>
        <mxCell id="zPEH12RnPpSnZzIr6eW2-22" value="&lt;div style=&quot;color: rgb(212, 212, 212); background-color: rgb(30, 30, 30); font-family: &amp;quot;droid sans mono&amp;quot;, &amp;quot;monospace&amp;quot;, monospace, &amp;quot;droid sans fallback&amp;quot;; font-weight: normal; font-size: 14px; line-height: 19px;&quot;&gt;&lt;div&gt;&lt;span style=&quot;color: #d4d4d4&quot;&gt;    {&lt;/span&gt;&lt;/div&gt;&lt;div&gt;&lt;span style=&quot;color: #d4d4d4&quot;&gt;      &lt;/span&gt;&lt;span style=&quot;color: #9cdcfe&quot;&gt;&quot;name&quot;&lt;/span&gt;&lt;span style=&quot;color: #d4d4d4&quot;&gt;: &lt;/span&gt;&lt;span style=&quot;color: #ce9178&quot;&gt;&quot;basic_path_optimizer&quot;&lt;/span&gt;&lt;span style=&quot;color: #d4d4d4&quot;&gt;,&lt;/span&gt;&lt;/div&gt;&lt;div&gt;&lt;span style=&quot;color: #d4d4d4&quot;&gt;      &lt;/span&gt;&lt;span style=&quot;color: #9cdcfe&quot;&gt;&quot;type&quot;&lt;/span&gt;&lt;span style=&quot;color: #d4d4d4&quot;&gt;: &lt;/span&gt;&lt;span style=&quot;color: #ce9178&quot;&gt;&quot;run_all&quot;&lt;/span&gt;&lt;span style=&quot;color: #d4d4d4&quot;&gt;,&lt;/span&gt;&lt;/div&gt;&lt;div&gt;&lt;span style=&quot;color: #d4d4d4&quot;&gt;      &lt;/span&gt;&lt;span style=&quot;color: #9cdcfe&quot;&gt;&quot;children&quot;&lt;/span&gt;&lt;span style=&quot;color: #d4d4d4&quot;&gt;: [&lt;/span&gt;&lt;/div&gt;&lt;div&gt;&lt;span style=&quot;color: #d4d4d4&quot;&gt;        &lt;/span&gt;&lt;span style=&quot;color: #ce9178&quot;&gt;&quot;obstacle_process_filter&quot;&lt;/span&gt;&lt;span style=&quot;color: #d4d4d4&quot;&gt;,&lt;/span&gt;&lt;/div&gt;&lt;div&gt;&lt;span style=&quot;color: #d4d4d4&quot;&gt;        &lt;/span&gt;&lt;span style=&quot;color: #ce9178&quot;&gt;&quot;dp_poly_path_optimizer&quot;&lt;/span&gt;&lt;span style=&quot;color: #d4d4d4&quot;&gt;,&lt;/span&gt;&lt;/div&gt;&lt;div&gt;&lt;span style=&quot;color: #d4d4d4&quot;&gt;        &lt;/span&gt;&lt;span style=&quot;color: #ce9178&quot;&gt;&quot;path_guard&quot;&lt;/span&gt;&lt;/div&gt;&lt;div&gt;&lt;span style=&quot;color: #d4d4d4&quot;&gt;      ]&lt;/span&gt;&lt;/div&gt;&lt;div&gt;&lt;span style=&quot;color: #d4d4d4&quot;&gt;    }&lt;/span&gt;&lt;/div&gt;&lt;/div&gt;" style="text;whiteSpace=wrap;html=1;" vertex="1" parent="1">
          <mxGeometry x="2640" y="1210" width="240" height="190" as="geometry" />
        </mxCell>
        <mxCell id="zPEH12RnPpSnZzIr6eW2-31" style="edgeStyle=orthogonalEdgeStyle;curved=1;rounded=0;orthogonalLoop=1;jettySize=auto;html=1;exitX=0.5;exitY=1;exitDx=0;exitDy=0;fontSize=13;fontColor=default;labelBackgroundColor=none;" edge="1" parent="1" source="zPEH12RnPpSnZzIr6eW2-30" target="zPEH12RnPpSnZzIr6eW2-30">
          <mxGeometry relative="1" as="geometry" />
        </mxCell>
        <mxCell id="zPEH12RnPpSnZzIr6eW2-35" value="&lt;div&gt;plan_config.json&lt;/div&gt;" style="rounded=0;whiteSpace=wrap;html=1;shadow=0;glass=0;labelBackgroundColor=none;sketch=0;fontSize=15;fontColor=default;fillColor=none;align=left;verticalAlign=top;dashed=1;container=0;" vertex="1" parent="1">
          <mxGeometry x="1830" y="872.5" width="1150" height="727.5" as="geometry" />
        </mxCell>
        <mxCell id="zPEH12RnPpSnZzIr6eW2-38" value="确定矿车当前状态" style="edgeStyle=orthogonalEdgeStyle;curved=1;rounded=0;orthogonalLoop=1;jettySize=auto;html=1;labelBackgroundColor=none;fontSize=13;fontColor=default;" edge="1" parent="1" source="zPEH12RnPpSnZzIr6eW2-36" target="zPEH12RnPpSnZzIr6eW2-37">
          <mxGeometry relative="1" as="geometry" />
        </mxCell>
        <mxCell id="zPEH12RnPpSnZzIr6eW2-36" value="&lt;div style=&quot;color: rgb(212 , 212 , 212) ; background-color: rgb(30 , 30 , 30) ; font-family: &amp;#34;droid sans mono&amp;#34; , &amp;#34;monospace&amp;#34; , monospace , &amp;#34;droid sans fallback&amp;#34; ; font-weight: normal ; font-size: 14px ; line-height: 19px&quot;&gt;&lt;div&gt;&lt;span style=&quot;color: #4ec9b0&quot;&gt;AHSDumpingScenario&lt;/span&gt;&lt;span style=&quot;color: #d4d4d4&quot;&gt;::&lt;/span&gt;&lt;span style=&quot;color: #dcdcaa&quot;&gt;run&lt;/span&gt;&lt;span style=&quot;color: #dcdcaa&quot;&gt;()&lt;/span&gt;&lt;span style=&quot;color: #d4d4d4&quot;&gt;&lt;/span&gt;&lt;span style=&quot;color: #d4d4d4&quot;&gt;&lt;/span&gt;&lt;/div&gt;&lt;/div&gt;" style="rounded=1;whiteSpace=wrap;html=1;shadow=0;glass=0;sketch=0;fontSize=15;fillColor=none;fontColor=default;labelBackgroundColor=none;" vertex="1" parent="1">
          <mxGeometry x="-490" y="1450" width="260" height="40" as="geometry" />
        </mxCell>
        <mxCell id="zPEH12RnPpSnZzIr6eW2-40" value="" style="edgeStyle=orthogonalEdgeStyle;curved=1;rounded=0;orthogonalLoop=1;jettySize=auto;html=1;labelBackgroundColor=none;fontSize=13;fontColor=default;" edge="1" parent="1" source="zPEH12RnPpSnZzIr6eW2-37" target="zPEH12RnPpSnZzIr6eW2-39">
          <mxGeometry relative="1" as="geometry" />
        </mxCell>
        <mxCell id="zPEH12RnPpSnZzIr6eW2-50" value="产生倒土过程参考线" style="edgeStyle=orthogonalEdgeStyle;curved=1;rounded=0;orthogonalLoop=1;jettySize=auto;html=1;labelBackgroundColor=none;fontSize=13;fontColor=default;" edge="1" parent="1" source="zPEH12RnPpSnZzIr6eW2-37" target="zPEH12RnPpSnZzIr6eW2-49">
          <mxGeometry relative="1" as="geometry" />
        </mxCell>
        <mxCell id="zPEH12RnPpSnZzIr6eW2-37" value="&lt;div style=&quot;color: rgb(212 , 212 , 212) ; background-color: rgb(30 , 30 , 30) ; font-family: &amp;#34;droid sans mono&amp;#34; , &amp;#34;monospace&amp;#34; , monospace , &amp;#34;droid sans fallback&amp;#34; ; font-weight: normal ; font-size: 14px ; line-height: 19px&quot;&gt;&lt;div&gt;&lt;span style=&quot;color: #d4d4d4&quot;&gt; &lt;/span&gt;&lt;span style=&quot;color: #dcdcaa&quot;&gt;dumping_action&lt;/span&gt;&lt;span style=&quot;color: #d4d4d4&quot;&gt;(&amp;amp;&lt;/span&gt;&lt;span style=&quot;color: #9cdcfe&quot;&gt;ahs_command&lt;/span&gt;&lt;span style=&quot;color: #d4d4d4&quot;&gt;)&lt;/span&gt;&lt;/div&gt;&lt;/div&gt;" style="rounded=1;whiteSpace=wrap;html=1;shadow=0;glass=0;sketch=0;fontSize=15;fillColor=none;fontColor=default;labelBackgroundColor=none;" vertex="1" parent="1">
          <mxGeometry x="-490" y="1570" width="260" height="40" as="geometry" />
        </mxCell>
        <mxCell id="zPEH12RnPpSnZzIr6eW2-46" style="edgeStyle=orthogonalEdgeStyle;curved=1;rounded=0;orthogonalLoop=1;jettySize=auto;html=1;exitX=0;exitY=0.5;exitDx=0;exitDy=0;entryX=0;entryY=0.5;entryDx=0;entryDy=0;labelBackgroundColor=none;fontSize=13;fontColor=default;" edge="1" parent="1" source="zPEH12RnPpSnZzIr6eW2-39" target="zPEH12RnPpSnZzIr6eW2-41">
          <mxGeometry relative="1" as="geometry">
            <Array as="points">
              <mxPoint x="-50" y="1590" />
              <mxPoint x="-50" y="1470" />
            </Array>
          </mxGeometry>
        </mxCell>
        <mxCell id="zPEH12RnPpSnZzIr6eW2-39" value="" style="whiteSpace=wrap;html=1;fontSize=15;fillColor=none;rounded=1;shadow=0;glass=0;sketch=0;labelBackgroundColor=none;" vertex="1" parent="1">
          <mxGeometry x="-100" y="1410" width="460" height="360" as="geometry" />
        </mxCell>
        <mxCell id="zPEH12RnPpSnZzIr6eW2-43" value="升高过程达到90%" style="edgeStyle=orthogonalEdgeStyle;curved=1;rounded=0;orthogonalLoop=1;jettySize=auto;html=1;labelBackgroundColor=none;fontSize=13;fontColor=default;" edge="1" parent="1" source="zPEH12RnPpSnZzIr6eW2-41" target="zPEH12RnPpSnZzIr6eW2-42">
          <mxGeometry relative="1" as="geometry" />
        </mxCell>
        <mxCell id="zPEH12RnPpSnZzIr6eW2-41" value="ASCEND&lt;br&gt;升斗" style="rounded=1;whiteSpace=wrap;html=1;labelBackgroundColor=none;fontSize=13;fontColor=default;" vertex="1" parent="1">
          <mxGeometry x="50" y="1440" width="120" height="60" as="geometry" />
        </mxCell>
        <mxCell id="zPEH12RnPpSnZzIr6eW2-45" value="保持时间满足 or 保持过程前进足够远" style="edgeStyle=orthogonalEdgeStyle;curved=1;rounded=0;orthogonalLoop=1;jettySize=auto;html=1;labelBackgroundColor=none;fontSize=13;fontColor=default;" edge="1" parent="1" source="zPEH12RnPpSnZzIr6eW2-42" target="zPEH12RnPpSnZzIr6eW2-44">
          <mxGeometry relative="1" as="geometry" />
        </mxCell>
        <mxCell id="zPEH12RnPpSnZzIr6eW2-42" value="HOLD&lt;br&gt;保持" style="whiteSpace=wrap;html=1;fontSize=13;rounded=1;labelBackgroundColor=none;" vertex="1" parent="1">
          <mxGeometry x="50" y="1540" width="120" height="60" as="geometry" />
        </mxCell>
        <mxCell id="zPEH12RnPpSnZzIr6eW2-47" style="edgeStyle=orthogonalEdgeStyle;curved=1;rounded=0;orthogonalLoop=1;jettySize=auto;html=1;exitX=0.5;exitY=1;exitDx=0;exitDy=0;labelBackgroundColor=none;fontSize=13;fontColor=default;entryX=0;entryY=0.5;entryDx=0;entryDy=0;" edge="1" parent="1" source="zPEH12RnPpSnZzIr6eW2-44" target="zPEH12RnPpSnZzIr6eW2-39">
          <mxGeometry relative="1" as="geometry">
            <mxPoint x="-100.00000000000045" y="1580" as="targetPoint" />
            <Array as="points">
              <mxPoint x="110" y="1720" />
              <mxPoint x="-30" y="1720" />
              <mxPoint x="-30" y="1590" />
            </Array>
          </mxGeometry>
        </mxCell>
        <mxCell id="zPEH12RnPpSnZzIr6eW2-48" value="降低高度降到5%" style="edgeLabel;html=1;align=center;verticalAlign=middle;resizable=0;points=[];fontSize=13;fontColor=default;" vertex="1" connectable="0" parent="zPEH12RnPpSnZzIr6eW2-47">
          <mxGeometry x="0.0538" y="-4" relative="1" as="geometry">
            <mxPoint as="offset" />
          </mxGeometry>
        </mxCell>
        <mxCell id="zPEH12RnPpSnZzIr6eW2-44" value="DESCEND&lt;br&gt;降斗" style="whiteSpace=wrap;html=1;fontSize=13;rounded=1;labelBackgroundColor=none;" vertex="1" parent="1">
          <mxGeometry x="50" y="1640" width="120" height="60" as="geometry" />
        </mxCell>
        <mxCell id="zPEH12RnPpSnZzIr6eW2-52" value="由参考线构造taskinfo" style="edgeStyle=orthogonalEdgeStyle;curved=1;rounded=0;orthogonalLoop=1;jettySize=auto;html=1;labelBackgroundColor=none;fontSize=13;fontColor=default;" edge="1" parent="1" source="zPEH12RnPpSnZzIr6eW2-49" target="zPEH12RnPpSnZzIr6eW2-51">
          <mxGeometry relative="1" as="geometry" />
        </mxCell>
        <mxCell id="zPEH12RnPpSnZzIr6eW2-58" style="edgeStyle=orthogonalEdgeStyle;curved=1;rounded=0;orthogonalLoop=1;jettySize=auto;html=1;entryX=1;entryY=0.5;entryDx=0;entryDy=0;labelBackgroundColor=none;fontSize=13;fontColor=default;" edge="1" parent="1" source="zPEH12RnPpSnZzIr6eW2-49" target="zPEH12RnPpSnZzIr6eW2-57">
          <mxGeometry relative="1" as="geometry" />
        </mxCell>
        <mxCell id="zPEH12RnPpSnZzIr6eW2-49" value="&lt;div style=&quot;color: rgb(212 , 212 , 212) ; background-color: rgb(30 , 30 , 30) ; font-family: &amp;#34;droid sans mono&amp;#34; , &amp;#34;monospace&amp;#34; , monospace , &amp;#34;droid sans fallback&amp;#34; ; font-weight: normal ; font-size: 14px ; line-height: 19px&quot;&gt;&lt;div&gt;&lt;span style=&quot;color: #9cdcfe&quot;&gt;ret&lt;/span&gt;&lt;span style=&quot;color: #d4d4d4&quot;&gt; = &lt;/span&gt;&lt;span style=&quot;color: #dcdcaa&quot;&gt;make_plans&lt;/span&gt;&lt;span style=&quot;color: #d4d4d4&quot;&gt;(&lt;/span&gt;&lt;span style=&quot;color: #9cdcfe&quot;&gt;frame&lt;/span&gt;&lt;span style=&quot;color: #d4d4d4&quot;&gt;, &amp;amp;&lt;/span&gt;&lt;span style=&quot;color: #9cdcfe&quot;&gt;plans&lt;/span&gt;&lt;span style=&quot;color: #d4d4d4&quot;&gt;)&lt;/span&gt;&lt;/div&gt;&lt;/div&gt;" style="rounded=1;whiteSpace=wrap;html=1;shadow=0;glass=0;sketch=0;fontSize=15;fillColor=none;fontColor=default;labelBackgroundColor=none;" vertex="1" parent="1">
          <mxGeometry x="-490" y="1730" width="260" height="40" as="geometry" />
        </mxCell>
        <mxCell id="zPEH12RnPpSnZzIr6eW2-54" value="构造投影器，&lt;br&gt;进行主车位置投影" style="edgeStyle=orthogonalEdgeStyle;curved=1;rounded=0;orthogonalLoop=1;jettySize=auto;html=1;labelBackgroundColor=none;fontSize=13;fontColor=default;" edge="1" parent="1" source="zPEH12RnPpSnZzIr6eW2-51" target="zPEH12RnPpSnZzIr6eW2-53">
          <mxGeometry relative="1" as="geometry" />
        </mxCell>
        <mxCell id="zPEH12RnPpSnZzIr6eW2-51" value="&lt;div style=&quot;color: rgb(212 , 212 , 212) ; background-color: rgb(30 , 30 , 30) ; font-family: &amp;#34;droid sans mono&amp;#34; , &amp;#34;monospace&amp;#34; , monospace , &amp;#34;droid sans fallback&amp;#34; ; font-weight: normal ; font-size: 14px ; line-height: 19px&quot;&gt;&lt;div&gt;&lt;span style=&quot;color: #9cdcfe&quot;&gt;plan&lt;/span&gt;&lt;span style=&quot;color: #dcdcaa&quot;&gt;-&amp;gt;&lt;/span&gt;&lt;span style=&quot;color: #dcdcaa&quot;&gt;begin_frame&lt;/span&gt;&lt;span style=&quot;color: #d4d4d4&quot;&gt;(&lt;/span&gt;&lt;span style=&quot;color: #9cdcfe&quot;&gt;frame&lt;/span&gt;&lt;span style=&quot;color: #d4d4d4&quot;&gt;)&lt;/span&gt;&lt;/div&gt;&lt;/div&gt;" style="rounded=1;whiteSpace=wrap;html=1;shadow=0;glass=0;sketch=0;fontSize=15;fillColor=none;fontColor=default;labelBackgroundColor=none;" vertex="1" parent="1">
          <mxGeometry x="-490" y="1850" width="260" height="40" as="geometry" />
        </mxCell>
        <mxCell id="zPEH12RnPpSnZzIr6eW2-56" value="" style="edgeStyle=orthogonalEdgeStyle;curved=1;rounded=0;orthogonalLoop=1;jettySize=auto;html=1;labelBackgroundColor=none;fontSize=13;fontColor=default;" edge="1" parent="1" source="zPEH12RnPpSnZzIr6eW2-53" target="zPEH12RnPpSnZzIr6eW2-55">
          <mxGeometry relative="1" as="geometry" />
        </mxCell>
        <mxCell id="zPEH12RnPpSnZzIr6eW2-53" value="&lt;div style=&quot;color: rgb(212 , 212 , 212) ; background-color: rgb(30 , 30 , 30) ; font-family: &amp;#34;droid sans mono&amp;#34; , &amp;#34;monospace&amp;#34; , monospace , &amp;#34;droid sans fallback&amp;#34; ; font-weight: normal ; font-size: 14px ; line-height: 19px&quot;&gt;&lt;div&gt;&lt;span style=&quot;color: #4ec9b0&quot;&gt;TaskManager&lt;/span&gt;&lt;span style=&quot;color: #d4d4d4&quot;&gt;::&lt;/span&gt;&lt;span style=&quot;color: #dcdcaa&quot;&gt;calc_projections&lt;/span&gt;&lt;span style=&quot;color: #d4d4d4&quot;&gt;(&amp;amp;&lt;/span&gt;&lt;span style=&quot;color: #9cdcfe&quot;&gt;cur_task&lt;/span&gt;&lt;span style=&quot;color: #d4d4d4&quot;&gt;)&lt;/span&gt;&lt;/div&gt;&lt;/div&gt;" style="rounded=1;whiteSpace=wrap;html=1;shadow=0;glass=0;sketch=0;fontSize=15;fillColor=none;fontColor=default;labelBackgroundColor=none;" vertex="1" parent="1">
          <mxGeometry x="-496.25" y="1960" width="272.5" height="40" as="geometry" />
        </mxCell>
        <mxCell id="zPEH12RnPpSnZzIr6eW2-73" style="edgeStyle=orthogonalEdgeStyle;shape=connector;curved=1;rounded=0;orthogonalLoop=1;jettySize=auto;html=1;labelBackgroundColor=none;fontFamily=Helvetica;fontSize=11;fontColor=default;startArrow=none;startFill=0;endArrow=classic;endFill=1;strokeColor=default;" edge="1" parent="1" source="zPEH12RnPpSnZzIr6eW2-55" target="zPEH12RnPpSnZzIr6eW2-57">
          <mxGeometry relative="1" as="geometry" />
        </mxCell>
        <mxCell id="zPEH12RnPpSnZzIr6eW2-74" value="按照&lt;span style=&quot;color: #ce9178&quot;&gt;dumping_driving_task顺序调度优化器&lt;/span&gt;" style="edgeLabel;html=1;align=center;verticalAlign=middle;resizable=0;points=[];fontSize=11;fontFamily=Helvetica;fontColor=default;" vertex="1" connectable="0" parent="zPEH12RnPpSnZzIr6eW2-73">
          <mxGeometry x="0.4605" y="-34" relative="1" as="geometry">
            <mxPoint as="offset" />
          </mxGeometry>
        </mxCell>
        <mxCell id="zPEH12RnPpSnZzIr6eW2-55" value="&lt;div style=&quot;color: rgb(212 , 212 , 212) ; background-color: rgb(30 , 30 , 30) ; font-family: &amp;#34;droid sans mono&amp;#34; , &amp;#34;monospace&amp;#34; , monospace , &amp;#34;droid sans fallback&amp;#34; ; font-weight: normal ; font-size: 14px ; line-height: 19px&quot;&gt;&lt;div&gt;&lt;span style=&quot;color: #9cdcfe&quot;&gt;plan&lt;/span&gt;&lt;span style=&quot;color: #dcdcaa&quot;&gt;-&amp;gt;&lt;/span&gt;&lt;span style=&quot;color: #dcdcaa&quot;&gt;task&lt;/span&gt;&lt;span style=&quot;color: #d4d4d4&quot;&gt;()&lt;/span&gt;&lt;span style=&quot;color: #dcdcaa&quot;&gt;-&amp;gt;&lt;/span&gt;&lt;span style=&quot;color: #dcdcaa&quot;&gt;execute&lt;/span&gt;&lt;span style=&quot;color: #d4d4d4&quot;&gt;(&lt;/span&gt;&lt;span style=&quot;color: #9cdcfe&quot;&gt;task_info&lt;/span&gt;&lt;span style=&quot;color: #d4d4d4&quot;&gt;.&lt;/span&gt;&lt;span style=&quot;color: #dcdcaa&quot;&gt;get&lt;/span&gt;&lt;span style=&quot;color: #d4d4d4&quot;&gt;())&lt;/span&gt;&lt;/div&gt;&lt;/div&gt;" style="rounded=1;whiteSpace=wrap;html=1;shadow=0;glass=0;sketch=0;fontSize=15;fillColor=none;fontColor=default;labelBackgroundColor=none;" vertex="1" parent="1">
          <mxGeometry x="-496.25" y="2060" width="272.5" height="40" as="geometry" />
        </mxCell>
        <mxCell id="zPEH12RnPpSnZzIr6eW2-57" value="n&lt;span&gt;ew&lt;/span&gt;&lt;span&gt; &lt;/span&gt;&lt;span&gt;DefaultTask&lt;/span&gt;&lt;span&gt;(&quot;&lt;/span&gt;&lt;span style=&quot;color: #ce9178&quot;&gt;dumping_driving_task&lt;/span&gt;&lt;span&gt;&lt;/span&gt;&lt;span&gt;&lt;/span&gt;&lt;span&gt;&quot;&lt;/span&gt;&lt;span&gt;)&lt;/span&gt;" style="rounded=1;whiteSpace=wrap;html=1;shadow=0;glass=0;sketch=0;fontSize=15;fillColor=none;fontColor=default;labelBackgroundColor=none;" vertex="1" parent="1">
          <mxGeometry x="-980" y="1730" width="320" height="40" as="geometry" />
        </mxCell>
        <mxCell id="zPEH12RnPpSnZzIr6eW2-72" style="edgeStyle=orthogonalEdgeStyle;shape=connector;curved=1;rounded=0;orthogonalLoop=1;jettySize=auto;html=1;entryX=0.5;entryY=0;entryDx=0;entryDy=0;labelBackgroundColor=none;fontFamily=Helvetica;fontSize=11;fontColor=default;startArrow=none;startFill=0;endArrow=classic;endFill=1;strokeColor=default;" edge="1" parent="1" source="zPEH12RnPpSnZzIr6eW2-61" target="zPEH12RnPpSnZzIr6eW2-70">
          <mxGeometry relative="1" as="geometry" />
        </mxCell>
        <mxCell id="zPEH12RnPpSnZzIr6eW2-61" value="&lt;div style=&quot;color: rgb(212 , 212 , 212) ; background-color: rgb(30 , 30 , 30) ; font-family: &amp;#34;droid sans mono&amp;#34; , &amp;#34;monospace&amp;#34; , monospace , &amp;#34;droid sans fallback&amp;#34; ; font-weight: normal ; font-size: 14px ; line-height: 19px&quot;&gt;&lt;div&gt;&lt;span style=&quot;color: #4ec9b0&quot;&gt;DefaultTask&lt;/span&gt;&lt;span style=&quot;color: #d4d4d4&quot;&gt;::&lt;/span&gt;&lt;span style=&quot;color: #dcdcaa&quot;&gt;execute()&lt;/span&gt;&lt;/div&gt;&lt;/div&gt;" style="rounded=1;whiteSpace=wrap;html=1;shadow=0;glass=0;sketch=0;fontSize=15;fillColor=none;fontColor=default;labelBackgroundColor=none;" vertex="1" parent="1">
          <mxGeometry x="-510" y="950" width="320" height="40" as="geometry" />
        </mxCell>
        <mxCell id="zPEH12RnPpSnZzIr6eW2-69" value="轨迹决策器从各个task_info里选择最佳轨迹" style="edgeStyle=orthogonalEdgeStyle;curved=1;rounded=0;orthogonalLoop=1;jettySize=auto;html=1;fontSize=13;fontColor=default;labelBackgroundColor=none;" edge="1" parent="1" source="zPEH12RnPpSnZzIr6eW2-70" target="zPEH12RnPpSnZzIr6eW2-71">
          <mxGeometry relative="1" as="geometry">
            <mxPoint as="offset" />
          </mxGeometry>
        </mxCell>
        <mxCell id="zPEH12RnPpSnZzIr6eW2-70" value="&lt;div style=&quot;font-family: &amp;quot;droid sans mono&amp;quot;, &amp;quot;monospace&amp;quot;, monospace, &amp;quot;droid sans fallback&amp;quot;; font-weight: normal; font-size: 14px; line-height: 19px;&quot;&gt;&lt;div&gt;&lt;span style=&quot;&quot;&gt;RunAllOptimizer&lt;/span&gt;&lt;span style=&quot;&quot;&gt;::&lt;/span&gt;&lt;span style=&quot;&quot;&gt;optimize（）&lt;/span&gt;&lt;/div&gt;&lt;/div&gt;" style="rounded=1;whiteSpace=wrap;html=1;shadow=0;glass=0;sketch=0;fontSize=15;fillColor=none;fontColor=default;labelBackgroundColor=none;" vertex="1" parent="1">
          <mxGeometry x="-500" y="1050" width="300" height="40" as="geometry" />
        </mxCell>
        <mxCell id="zPEH12RnPpSnZzIr6eW2-71" value="&lt;div style=&quot;font-family: &amp;quot;droid sans mono&amp;quot;, &amp;quot;monospace&amp;quot;, monospace, &amp;quot;droid sans fallback&amp;quot;; font-weight: normal; font-size: 14px; line-height: 19px;&quot;&gt;&lt;div&gt;&lt;span style=&quot;&quot;&gt;TrajectoryDecider&lt;/span&gt;&lt;span style=&quot;&quot;&gt;::&lt;/span&gt;&lt;span style=&quot;&quot;&gt;decide&lt;/span&gt;&lt;span style=&quot;&quot;&gt;()&lt;/span&gt;&lt;/div&gt;&lt;/div&gt;" style="rounded=1;whiteSpace=wrap;html=1;shadow=0;glass=0;sketch=0;fontSize=15;fillColor=none;fontColor=default;labelBackgroundColor=none;" vertex="1" parent="1">
          <mxGeometry x="-500" y="1170" width="300" height="40" as="geometry" />
        </mxCell>
        <mxCell id="zPEH12RnPpSnZzIr6eW2-75" value="&lt;div style=&quot;color: rgb(212, 212, 212); background-color: rgb(30, 30, 30); font-family: &amp;quot;droid sans mono&amp;quot;, &amp;quot;monospace&amp;quot;, monospace, &amp;quot;droid sans fallback&amp;quot;; font-weight: normal; font-size: 14px; line-height: 19px;&quot;&gt;&lt;div&gt;&lt;span style=&quot;color: #d4d4d4&quot;&gt;{&lt;/span&gt;&lt;/div&gt;&lt;div&gt;&lt;span style=&quot;color: #d4d4d4&quot;&gt;      &lt;/span&gt;&lt;span style=&quot;color: #9cdcfe&quot;&gt;&quot;name&quot;&lt;/span&gt;&lt;span style=&quot;color: #d4d4d4&quot;&gt;:&lt;/span&gt;&lt;span style=&quot;color: #ce9178&quot;&gt;&quot;dumping_driving_task&quot;&lt;/span&gt;&lt;span style=&quot;color: #d4d4d4&quot;&gt;,&lt;/span&gt;&lt;/div&gt;&lt;div&gt;&lt;span style=&quot;color: #d4d4d4&quot;&gt;      &lt;/span&gt;&lt;span style=&quot;color: #9cdcfe&quot;&gt;&quot;type&quot;&lt;/span&gt;&lt;span style=&quot;color: #d4d4d4&quot;&gt;:&lt;/span&gt;&lt;span style=&quot;color: #ce9178&quot;&gt;&quot;task&quot;&lt;/span&gt;&lt;span style=&quot;color: #d4d4d4&quot;&gt;,&lt;/span&gt;&lt;/div&gt;&lt;div&gt;&lt;span style=&quot;color: #d4d4d4&quot;&gt;      &lt;/span&gt;&lt;span style=&quot;color: #9cdcfe&quot;&gt;&quot;optimizer_creator&quot;&lt;/span&gt;&lt;span style=&quot;color: #d4d4d4&quot;&gt;: &lt;/span&gt;&lt;span style=&quot;color: #ce9178&quot;&gt;&quot;city_road&quot;&lt;/span&gt;&lt;span style=&quot;color: #d4d4d4&quot;&gt;,&lt;/span&gt;&lt;/div&gt;&lt;div&gt;&lt;span style=&quot;color: #d4d4d4&quot;&gt;      &lt;/span&gt;&lt;span style=&quot;color: #9cdcfe&quot;&gt;&quot;optimizers&quot;&lt;/span&gt;&lt;span style=&quot;color: #d4d4d4&quot;&gt;: [&lt;/span&gt;&lt;/div&gt;&lt;div&gt;&lt;span style=&quot;color: #d4d4d4&quot;&gt;        &lt;/span&gt;&lt;span style=&quot;color: #ce9178&quot;&gt;&quot;initializer&quot;&lt;/span&gt;&lt;span style=&quot;color: #d4d4d4&quot;&gt;,&lt;/span&gt;&lt;/div&gt;&lt;div&gt;&lt;span style=&quot;color: #d4d4d4&quot;&gt;        &lt;/span&gt;&lt;span style=&quot;color: #ce9178&quot;&gt;&quot;common_analysis&quot;&lt;/span&gt;&lt;span style=&quot;color: #d4d4d4&quot;&gt;,&lt;/span&gt;&lt;/div&gt;&lt;div&gt;&lt;span style=&quot;color: #d4d4d4&quot;&gt;        &lt;/span&gt;&lt;span style=&quot;color: #ce9178&quot;&gt;&quot;dumb_path_optimizer&quot;&lt;/span&gt;&lt;span style=&quot;color: #d4d4d4&quot;&gt;,&lt;/span&gt;&lt;/div&gt;&lt;div&gt;&lt;span style=&quot;color: #d4d4d4&quot;&gt;        &lt;/span&gt;&lt;span style=&quot;color: #ce9178&quot;&gt;&quot;merge_reuse_path&quot;&lt;/span&gt;&lt;span style=&quot;color: #d4d4d4&quot;&gt;,&lt;/span&gt;&lt;/div&gt;&lt;div&gt;&lt;span style=&quot;color: #d4d4d4&quot;&gt;        &lt;/span&gt;&lt;span style=&quot;color: #ce9178&quot;&gt;&quot;slt_speed_optimizer&quot;&lt;/span&gt;&lt;span style=&quot;color: #d4d4d4&quot;&gt;,&lt;/span&gt;&lt;/div&gt;&lt;div&gt;&lt;span style=&quot;color: #d4d4d4&quot;&gt;        &lt;/span&gt;&lt;span style=&quot;color: #ce9178&quot;&gt;&quot;longtitude_decision&quot;&lt;/span&gt;&lt;/div&gt;&lt;div&gt;&lt;span style=&quot;color: #d4d4d4&quot;&gt;      ]&lt;/span&gt;&lt;/div&gt;&lt;div&gt;&lt;span style=&quot;color: #d4d4d4&quot;&gt;    }&lt;/span&gt;&lt;/div&gt;&lt;/div&gt;" style="text;whiteSpace=wrap;html=1;fontSize=11;fontFamily=Helvetica;fontColor=default;" vertex="1" parent="1">
          <mxGeometry x="-940" y="1440" width="240" height="260" as="geometry" />
        </mxCell>
        <mxCell id="zPEH12RnPpSnZzIr6eW2-81" value="生成参考线和plan" style="edgeStyle=orthogonalEdgeStyle;shape=connector;curved=1;rounded=0;orthogonalLoop=1;jettySize=auto;html=1;labelBackgroundColor=none;fontFamily=Helvetica;fontSize=11;fontColor=default;startArrow=none;startFill=0;endArrow=classic;endFill=1;strokeColor=default;" edge="1" parent="1" source="zPEH12RnPpSnZzIr6eW2-79" target="zPEH12RnPpSnZzIr6eW2-80">
          <mxGeometry relative="1" as="geometry" />
        </mxCell>
        <mxCell id="zPEH12RnPpSnZzIr6eW2-79" value="&lt;div style=&quot;color: rgb(212 , 212 , 212) ; background-color: rgb(30 , 30 , 30) ; font-family: &amp;#34;droid sans mono&amp;#34; , &amp;#34;monospace&amp;#34; , monospace , &amp;#34;droid sans fallback&amp;#34; ; font-weight: normal ; font-size: 14px ; line-height: 19px&quot;&gt;&lt;div&gt;&lt;div style=&quot;color: rgb(212 , 212 , 212) ; background-color: rgb(30 , 30 , 30) ; font-family: &amp;#34;droid sans mono&amp;#34; , &amp;#34;monospace&amp;#34; , monospace , &amp;#34;droid sans fallback&amp;#34; ; font-weight: normal ; font-size: 14px ; line-height: 19px&quot;&gt;&lt;div&gt;&lt;span style=&quot;color: #4ec9b0&quot;&gt;AHSParkingScenario&lt;/span&gt;&lt;span style=&quot;color: #d4d4d4&quot;&gt;::&lt;/span&gt;&lt;span style=&quot;color: #dcdcaa&quot;&gt;run&lt;/span&gt;&lt;span style=&quot;color: #dcdcaa&quot;&gt;()&lt;/span&gt;&lt;span style=&quot;color: #d4d4d4&quot;&gt;&lt;/span&gt;&lt;span style=&quot;color: #d4d4d4&quot;&gt;&lt;/span&gt;&lt;/div&gt;&lt;/div&gt;&lt;/div&gt;&lt;/div&gt;" style="rounded=1;whiteSpace=wrap;html=1;shadow=0;glass=0;sketch=0;fontSize=15;fillColor=none;fontColor=default;labelBackgroundColor=none;" vertex="1" parent="1">
          <mxGeometry x="-510" y="2390" width="260" height="40" as="geometry" />
        </mxCell>
        <mxCell id="zPEH12RnPpSnZzIr6eW2-83" value="起点和终点间基于dubin曲线生成参考线" style="edgeStyle=orthogonalEdgeStyle;shape=connector;curved=1;rounded=0;orthogonalLoop=1;jettySize=auto;html=1;labelBackgroundColor=none;fontFamily=Helvetica;fontSize=11;fontColor=default;startArrow=none;startFill=0;endArrow=classic;endFill=1;strokeColor=default;" edge="1" parent="1" source="zPEH12RnPpSnZzIr6eW2-80" target="zPEH12RnPpSnZzIr6eW2-82">
          <mxGeometry relative="1" as="geometry" />
        </mxCell>
        <mxCell id="zPEH12RnPpSnZzIr6eW2-80" value="&lt;div style=&quot;color: rgb(212 , 212 , 212) ; background-color: rgb(30 , 30 , 30) ; font-family: &amp;#34;droid sans mono&amp;#34; , &amp;#34;monospace&amp;#34; , monospace , &amp;#34;droid sans fallback&amp;#34; ; font-weight: normal ; font-size: 14px ; line-height: 19px&quot;&gt;&lt;div&gt;&lt;span style=&quot;color: #4ec9b0&quot;&gt;AHSParkingInScenario&lt;/span&gt;&lt;span style=&quot;color: #d4d4d4&quot;&gt;::&lt;/span&gt;&lt;span style=&quot;color: #dcdcaa&quot;&gt;create_plan_by_trajectory&lt;/span&gt;&lt;/div&gt;&lt;/div&gt;" style="rounded=1;whiteSpace=wrap;html=1;shadow=0;glass=0;sketch=0;fontSize=15;fillColor=none;fontColor=default;labelBackgroundColor=none;" vertex="1" parent="1">
          <mxGeometry x="-510" y="2510" width="260" height="40" as="geometry" />
        </mxCell>
        <mxCell id="zPEH12RnPpSnZzIr6eW2-85" value="" style="edgeStyle=orthogonalEdgeStyle;shape=connector;curved=1;rounded=0;orthogonalLoop=1;jettySize=auto;html=1;labelBackgroundColor=none;fontFamily=Helvetica;fontSize=11;fontColor=default;startArrow=none;startFill=0;endArrow=classic;endFill=1;strokeColor=default;" edge="1" parent="1" source="zPEH12RnPpSnZzIr6eW2-82" target="zPEH12RnPpSnZzIr6eW2-84">
          <mxGeometry relative="1" as="geometry" />
        </mxCell>
        <mxCell id="zPEH12RnPpSnZzIr6eW2-82" value="&lt;div style=&quot;color: rgb(212 , 212 , 212) ; background-color: rgb(30 , 30 , 30) ; font-family: &amp;#34;droid sans mono&amp;#34; , &amp;#34;monospace&amp;#34; , monospace , &amp;#34;droid sans fallback&amp;#34; ; font-weight: normal ; font-size: 14px ; line-height: 19px&quot;&gt;&lt;div&gt;&lt;span style=&quot;color: #4ec9b0&quot;&gt;AHSParkingInScenario&lt;/span&gt;&lt;span style=&quot;color: #d4d4d4&quot;&gt;::&lt;/span&gt;&lt;span style=&quot;color: #dcdcaa&quot;&gt;make_extended_reference_line&lt;/span&gt;&lt;/div&gt;&lt;/div&gt;" style="rounded=1;whiteSpace=wrap;html=1;shadow=0;glass=0;sketch=0;fontSize=15;fillColor=none;fontColor=default;labelBackgroundColor=none;" vertex="1" parent="1">
          <mxGeometry x="-560" y="2630" width="360" height="40" as="geometry" />
        </mxCell>
        <mxCell id="zPEH12RnPpSnZzIr6eW2-87" style="edgeStyle=orthogonalEdgeStyle;shape=connector;curved=1;rounded=0;orthogonalLoop=1;jettySize=auto;html=1;entryX=1;entryY=0.5;entryDx=0;entryDy=0;labelBackgroundColor=none;fontFamily=Helvetica;fontSize=11;fontColor=default;startArrow=none;startFill=0;endArrow=classic;endFill=1;strokeColor=default;" edge="1" parent="1" source="zPEH12RnPpSnZzIr6eW2-84" target="zPEH12RnPpSnZzIr6eW2-86">
          <mxGeometry relative="1" as="geometry" />
        </mxCell>
        <mxCell id="zPEH12RnPpSnZzIr6eW2-89" value="轨迹拼接" style="edgeStyle=orthogonalEdgeStyle;shape=connector;curved=1;rounded=0;orthogonalLoop=1;jettySize=auto;html=1;labelBackgroundColor=none;fontFamily=Helvetica;fontSize=11;fontColor=default;startArrow=none;startFill=0;endArrow=classic;endFill=1;strokeColor=default;" edge="1" parent="1" source="zPEH12RnPpSnZzIr6eW2-84" target="zPEH12RnPpSnZzIr6eW2-88">
          <mxGeometry relative="1" as="geometry" />
        </mxCell>
        <mxCell id="zPEH12RnPpSnZzIr6eW2-84" value="&lt;div style=&quot;color: rgb(212 , 212 , 212) ; background-color: rgb(30 , 30 , 30) ; font-family: &amp;#34;droid sans mono&amp;#34; , &amp;#34;monospace&amp;#34; , monospace , &amp;#34;droid sans fallback&amp;#34; ; font-weight: normal ; font-size: 14px ; line-height: 19px&quot;&gt;&lt;div&gt;&lt;span style=&quot;color: #4ec9b0&quot;&gt;std&lt;/span&gt;&lt;span style=&quot;color: #d4d4d4&quot;&gt;::&lt;/span&gt;&lt;span style=&quot;color: #dcdcaa&quot;&gt;make_shared&lt;/span&gt;&lt;span style=&quot;color: #d4d4d4&quot;&gt;&amp;lt;&lt;/span&gt;&lt;span style=&quot;color: #4ec9b0&quot;&gt;ReferencePlan&lt;/span&gt;&lt;span style=&quot;color: #d4d4d4&quot;&gt;&amp;gt;(&lt;/span&gt;&lt;span style=&quot;color: #ce9178&quot;&gt;&quot;simplified_task&quot;&lt;/span&gt;&lt;span style=&quot;color: #d4d4d4&quot;&gt;, &lt;/span&gt;&lt;span style=&quot;color: #9cdcfe&quot;&gt;ref_info&lt;/span&gt;&lt;span style=&quot;color: #d4d4d4&quot;&gt;)&lt;/span&gt;&lt;/div&gt;&lt;/div&gt;" style="rounded=1;whiteSpace=wrap;html=1;shadow=0;glass=0;sketch=0;fontSize=15;fillColor=none;fontColor=default;labelBackgroundColor=none;" vertex="1" parent="1">
          <mxGeometry x="-560" y="2750" width="360" height="40" as="geometry" />
        </mxCell>
        <mxCell id="zPEH12RnPpSnZzIr6eW2-86" value="n&lt;span&gt;ew&lt;/span&gt;&lt;span&gt; &lt;/span&gt;&lt;span&gt;DefaultTask&lt;/span&gt;&lt;span&gt;(&quot;&lt;/span&gt;&lt;span style=&quot;color: #ce9178&quot;&gt;simplified_task&lt;/span&gt;&lt;span&gt;&lt;/span&gt;&lt;span&gt;&lt;/span&gt;&lt;span&gt;&quot;&lt;/span&gt;&lt;span&gt;)&lt;/span&gt;" style="rounded=1;whiteSpace=wrap;html=1;shadow=0;glass=0;sketch=0;fontSize=15;fillColor=none;fontColor=default;labelBackgroundColor=none;" vertex="1" parent="1">
          <mxGeometry x="-1000" y="2750" width="320" height="40" as="geometry" />
        </mxCell>
        <mxCell id="zPEH12RnPpSnZzIr6eW2-91" value="计算原始参考线主车位置投影" style="edgeStyle=orthogonalEdgeStyle;shape=connector;curved=1;rounded=0;orthogonalLoop=1;jettySize=auto;html=1;labelBackgroundColor=none;fontFamily=Helvetica;fontSize=11;fontColor=default;startArrow=none;startFill=0;endArrow=classic;endFill=1;strokeColor=default;" edge="1" parent="1" source="zPEH12RnPpSnZzIr6eW2-88" target="zPEH12RnPpSnZzIr6eW2-90">
          <mxGeometry relative="1" as="geometry" />
        </mxCell>
        <mxCell id="zPEH12RnPpSnZzIr6eW2-88" value="&lt;div style=&quot;color: rgb(212 , 212 , 212) ; background-color: rgb(30 , 30 , 30) ; font-family: &amp;#34;droid sans mono&amp;#34; , &amp;#34;monospace&amp;#34; , monospace , &amp;#34;droid sans fallback&amp;#34; ; font-weight: normal ; font-size: 14px ; line-height: 19px&quot;&gt;&lt;div&gt;&lt;span style=&quot;color: #4ec9b0&quot;&gt;TrajectoryStitcher&lt;/span&gt;&lt;span style=&quot;color: #d4d4d4&quot;&gt;().&lt;/span&gt;&lt;span style=&quot;color: #dcdcaa&quot;&gt;flexible_stitch&lt;/span&gt;&lt;/div&gt;&lt;/div&gt;" style="rounded=1;whiteSpace=wrap;html=1;shadow=0;glass=0;sketch=0;fontSize=15;fillColor=none;fontColor=default;labelBackgroundColor=none;" vertex="1" parent="1">
          <mxGeometry x="-560" y="2870" width="360" height="40" as="geometry" />
        </mxCell>
        <mxCell id="zPEH12RnPpSnZzIr6eW2-93" value="&lt;div&gt;参考线平滑生成新projector&lt;/div&gt;&lt;div&gt;在新参考系下主车位置投影&lt;br&gt;&lt;/div&gt;" style="edgeStyle=orthogonalEdgeStyle;shape=connector;curved=1;rounded=0;orthogonalLoop=1;jettySize=auto;html=1;labelBackgroundColor=none;fontFamily=Helvetica;fontSize=11;fontColor=default;startArrow=none;startFill=0;endArrow=classic;endFill=1;strokeColor=default;" edge="1" parent="1" source="zPEH12RnPpSnZzIr6eW2-90" target="zPEH12RnPpSnZzIr6eW2-92">
          <mxGeometry relative="1" as="geometry" />
        </mxCell>
        <mxCell id="zPEH12RnPpSnZzIr6eW2-90" value="&lt;div style=&quot;color: rgb(212, 212, 212); background-color: rgb(30, 30, 30); font-family: &amp;quot;droid sans mono&amp;quot;, &amp;quot;monospace&amp;quot;, monospace, &amp;quot;droid sans fallback&amp;quot;; font-weight: normal; font-size: 14px; line-height: 19px;&quot;&gt;&lt;div&gt;&lt;span style=&quot;color: #4ec9b0&quot;&gt;TaskManager&lt;/span&gt;&lt;span style=&quot;color: #d4d4d4&quot;&gt;::&lt;/span&gt;&lt;span style=&quot;color: #dcdcaa&quot;&gt;calc_projections&lt;/span&gt;&lt;span style=&quot;color: #d4d4d4&quot;&gt;(&amp;amp;&lt;/span&gt;&lt;span style=&quot;color: #9cdcfe&quot;&gt;cur_task&lt;/span&gt;&lt;span style=&quot;color: #d4d4d4&quot;&gt;)&lt;/span&gt;&lt;/div&gt;&lt;/div&gt;" style="rounded=1;whiteSpace=wrap;html=1;shadow=0;glass=0;sketch=0;fontSize=15;fillColor=none;fontColor=default;labelBackgroundColor=none;" vertex="1" parent="1">
          <mxGeometry x="-560" y="2970" width="360" height="40" as="geometry" />
        </mxCell>
        <mxCell id="zPEH12RnPpSnZzIr6eW2-95" value="障碍物投影" style="edgeStyle=orthogonalEdgeStyle;shape=connector;curved=1;rounded=0;orthogonalLoop=1;jettySize=auto;html=1;labelBackgroundColor=none;fontFamily=Helvetica;fontSize=11;fontColor=default;startArrow=none;startFill=0;endArrow=classic;endFill=1;strokeColor=default;" edge="1" parent="1" source="zPEH12RnPpSnZzIr6eW2-92" target="zPEH12RnPpSnZzIr6eW2-94">
          <mxGeometry relative="1" as="geometry" />
        </mxCell>
        <mxCell id="zPEH12RnPpSnZzIr6eW2-92" value="&lt;div style=&quot;color: rgb(212 , 212 , 212) ; background-color: rgb(30 , 30 , 30) ; font-family: &amp;#34;droid sans mono&amp;#34; , &amp;#34;monospace&amp;#34; , monospace , &amp;#34;droid sans fallback&amp;#34; ; font-weight: normal ; font-size: 14px ; line-height: 19px&quot;&gt;&lt;div&gt;&lt;span style=&quot;color: #4ec9b0&quot;&gt;TaskManager&lt;/span&gt;&lt;span style=&quot;color: #d4d4d4&quot;&gt;::&lt;/span&gt;&lt;span style=&quot;color: #dcdcaa&quot;&gt;make_sub_projector&lt;/span&gt;&lt;/div&gt;&lt;/div&gt;" style="rounded=1;whiteSpace=wrap;html=1;shadow=0;glass=0;sketch=0;fontSize=15;fillColor=none;fontColor=default;labelBackgroundColor=none;" vertex="1" parent="1">
          <mxGeometry x="-560" y="3080" width="360" height="40" as="geometry" />
        </mxCell>
        <mxCell id="zPEH12RnPpSnZzIr6eW2-97" value="顺序执行simplified_task" style="edgeStyle=orthogonalEdgeStyle;shape=connector;curved=1;rounded=0;orthogonalLoop=1;jettySize=auto;html=1;labelBackgroundColor=none;fontFamily=Helvetica;fontSize=11;fontColor=default;startArrow=none;startFill=0;endArrow=classic;endFill=1;strokeColor=default;" edge="1" parent="1" source="zPEH12RnPpSnZzIr6eW2-94" target="zPEH12RnPpSnZzIr6eW2-96">
          <mxGeometry relative="1" as="geometry" />
        </mxCell>
        <mxCell id="zPEH12RnPpSnZzIr6eW2-94" value="&lt;div style=&quot;color: rgb(212 , 212 , 212) ; background-color: rgb(30 , 30 , 30) ; font-family: &amp;#34;droid sans mono&amp;#34; , &amp;#34;monospace&amp;#34; , monospace , &amp;#34;droid sans fallback&amp;#34; ; font-weight: normal ; font-size: 14px ; line-height: 19px&quot;&gt;&lt;div&gt;&lt;span style=&quot;color: #9cdcfe&quot;&gt;decision_data&lt;/span&gt;&lt;span style=&quot;color: #dcdcaa&quot;&gt;-&amp;gt;&lt;/span&gt;&lt;span style=&quot;color: #dcdcaa&quot;&gt;init_obstacle_trajectories&lt;/span&gt;&lt;span style=&quot;color: #d4d4d4&quot;&gt;()&lt;/span&gt;&lt;/div&gt;&lt;/div&gt;" style="rounded=1;whiteSpace=wrap;html=1;shadow=0;glass=0;sketch=0;fontSize=15;fillColor=none;fontColor=default;labelBackgroundColor=none;" vertex="1" parent="1">
          <mxGeometry x="-560" y="3180" width="360" height="40" as="geometry" />
        </mxCell>
        <mxCell id="zPEH12RnPpSnZzIr6eW2-102" value="是否完成场景：&lt;br&gt;1.是否到达终点&lt;br&gt;2.是否已经停车" style="edgeStyle=orthogonalEdgeStyle;shape=connector;curved=1;rounded=0;orthogonalLoop=1;jettySize=auto;html=1;labelBackgroundColor=none;fontFamily=Helvetica;fontSize=11;fontColor=default;startArrow=none;startFill=0;endArrow=classic;endFill=1;strokeColor=default;" edge="1" parent="1" source="zPEH12RnPpSnZzIr6eW2-96" target="zPEH12RnPpSnZzIr6eW2-101">
          <mxGeometry relative="1" as="geometry" />
        </mxCell>
        <mxCell id="zPEH12RnPpSnZzIr6eW2-96" value="&lt;div style=&quot;color: rgb(212 , 212 , 212) ; background-color: rgb(30 , 30 , 30) ; font-family: &amp;#34;droid sans mono&amp;#34; , &amp;#34;monospace&amp;#34; , monospace , &amp;#34;droid sans fallback&amp;#34; ; font-weight: normal ; font-size: 14px ; line-height: 19px&quot;&gt;&lt;div&gt;&lt;span style=&quot;color: #d4d4d4&quot;&gt; &lt;/span&gt;&lt;span style=&quot;color: #4ec9b0&quot;&gt;AHSParkingScenario&lt;/span&gt;&lt;span style=&quot;color: #d4d4d4&quot;&gt;::&lt;/span&gt;&lt;span style=&quot;color: #dcdcaa&quot;&gt;execute_plan&lt;/span&gt;&lt;/div&gt;&lt;/div&gt;" style="rounded=1;whiteSpace=wrap;html=1;shadow=0;glass=0;sketch=0;fontSize=15;fillColor=none;fontColor=default;labelBackgroundColor=none;" vertex="1" parent="1">
          <mxGeometry x="-560" y="3300" width="360" height="40" as="geometry" />
        </mxCell>
        <mxCell id="zPEH12RnPpSnZzIr6eW2-101" value="&lt;div style=&quot;color: rgb(212 , 212 , 212) ; background-color: rgb(30 , 30 , 30) ; font-family: &amp;#34;droid sans mono&amp;#34; , &amp;#34;monospace&amp;#34; , monospace , &amp;#34;droid sans fallback&amp;#34; ; font-weight: normal ; font-size: 14px ; line-height: 19px&quot;&gt;&lt;div&gt;&lt;span style=&quot;color: #9cdcfe&quot;&gt;plan_finished&lt;/span&gt;&lt;span style=&quot;color: #d4d4d4&quot;&gt; = &lt;/span&gt;&lt;span style=&quot;color: #569cd6&quot;&gt;this&lt;/span&gt;&lt;span style=&quot;color: #d4d4d4&quot;&gt;-&amp;gt;&lt;/span&gt;&lt;span style=&quot;color: #dcdcaa&quot;&gt;plan_finished()&lt;/span&gt;&lt;/div&gt;&lt;/div&gt;" style="rounded=1;whiteSpace=wrap;html=1;shadow=0;glass=0;sketch=0;fontSize=15;fillColor=none;fontColor=default;labelBackgroundColor=none;" vertex="1" parent="1">
          <mxGeometry x="-560" y="3420" width="360" height="40" as="geometry" />
        </mxCell>
        <mxCell id="zPEH12RnPpSnZzIr6eW2-105" value="&lt;div style=&quot;color: rgb(212, 212, 212); background-color: rgb(30, 30, 30); font-family: &amp;quot;droid sans mono&amp;quot;, &amp;quot;monospace&amp;quot;, monospace, &amp;quot;droid sans fallback&amp;quot;; font-weight: normal; font-size: 14px; line-height: 19px;&quot;&gt;&lt;div&gt;&lt;span style=&quot;color: #d4d4d4&quot;&gt;    {&lt;/span&gt;&lt;/div&gt;&lt;div&gt;&lt;span style=&quot;color: #d4d4d4&quot;&gt;      &lt;/span&gt;&lt;span style=&quot;color: #9cdcfe&quot;&gt;&quot;name&quot;&lt;/span&gt;&lt;span style=&quot;color: #d4d4d4&quot;&gt;:&lt;/span&gt;&lt;span style=&quot;color: #ce9178&quot;&gt;&quot;simplified_task&quot;&lt;/span&gt;&lt;span style=&quot;color: #d4d4d4&quot;&gt;,&lt;/span&gt;&lt;/div&gt;&lt;div&gt;&lt;span style=&quot;color: #d4d4d4&quot;&gt;      &lt;/span&gt;&lt;span style=&quot;color: #9cdcfe&quot;&gt;&quot;type&quot;&lt;/span&gt;&lt;span style=&quot;color: #d4d4d4&quot;&gt;:&lt;/span&gt;&lt;span style=&quot;color: #ce9178&quot;&gt;&quot;task&quot;&lt;/span&gt;&lt;span style=&quot;color: #d4d4d4&quot;&gt;,&lt;/span&gt;&lt;/div&gt;&lt;div&gt;&lt;span style=&quot;color: #d4d4d4&quot;&gt;      &lt;/span&gt;&lt;span style=&quot;color: #9cdcfe&quot;&gt;&quot;optimizer_creator&quot;&lt;/span&gt;&lt;span style=&quot;color: #d4d4d4&quot;&gt;: &lt;/span&gt;&lt;span style=&quot;color: #ce9178&quot;&gt;&quot;city_road&quot;&lt;/span&gt;&lt;span style=&quot;color: #d4d4d4&quot;&gt;,&lt;/span&gt;&lt;/div&gt;&lt;div&gt;&lt;span style=&quot;color: #d4d4d4&quot;&gt;      &lt;/span&gt;&lt;span style=&quot;color: #9cdcfe&quot;&gt;&quot;optimizers&quot;&lt;/span&gt;&lt;span style=&quot;color: #d4d4d4&quot;&gt;: [&lt;/span&gt;&lt;/div&gt;&lt;div&gt;&lt;span style=&quot;color: #d4d4d4&quot;&gt;        &lt;/span&gt;&lt;span style=&quot;color: #ce9178&quot;&gt;&quot;initializer&quot;&lt;/span&gt;&lt;span style=&quot;color: #d4d4d4&quot;&gt;,&lt;/span&gt;&lt;/div&gt;&lt;div&gt;&lt;span style=&quot;color: #d4d4d4&quot;&gt;        &lt;/span&gt;&lt;span style=&quot;color: #ce9178&quot;&gt;&quot;common_analysis&quot;&lt;/span&gt;&lt;span style=&quot;color: #d4d4d4&quot;&gt;,&lt;/span&gt;&lt;/div&gt;&lt;div&gt;&lt;span style=&quot;color: #d4d4d4&quot;&gt;        &lt;/span&gt;&lt;span style=&quot;color: #ce9178&quot;&gt;&quot;path_optimizer&quot;&lt;/span&gt;&lt;span style=&quot;color: #d4d4d4&quot;&gt;,&lt;/span&gt;&lt;/div&gt;&lt;div&gt;&lt;span style=&quot;color: #d4d4d4&quot;&gt;        &lt;/span&gt;&lt;span style=&quot;color: #ce9178&quot;&gt;&quot;merge_reuse_path&quot;&lt;/span&gt;&lt;span style=&quot;color: #d4d4d4&quot;&gt;,&lt;/span&gt;&lt;/div&gt;&lt;div&gt;&lt;span style=&quot;color: #d4d4d4&quot;&gt;        &lt;/span&gt;&lt;span style=&quot;color: #ce9178&quot;&gt;&quot;slt_speed_optimizer&quot;&lt;/span&gt;&lt;span style=&quot;color: #d4d4d4&quot;&gt;,&lt;/span&gt;&lt;/div&gt;&lt;div&gt;&lt;span style=&quot;color: #d4d4d4&quot;&gt;        &lt;/span&gt;&lt;span style=&quot;color: #ce9178&quot;&gt;&quot;longtitude_decision&quot;&lt;/span&gt;&lt;/div&gt;&lt;div&gt;&lt;span style=&quot;color: #d4d4d4&quot;&gt;      ]&lt;/span&gt;&lt;/div&gt;&lt;div&gt;&lt;span style=&quot;color: #d4d4d4&quot;&gt;    }&lt;/span&gt;&lt;/div&gt;&lt;/div&gt;" style="text;whiteSpace=wrap;html=1;fontSize=11;fontFamily=Helvetica;fontColor=default;" vertex="1" parent="1">
          <mxGeometry x="-950" y="2850" width="260" height="260" as="geometry" />
        </mxCell>
      </root>
    </mxGraphModel>
  </diagram>
</mxfile>
